<svg xmlns="http://www.w3.org/2000/svg" viewBox="0 0 2121 2123"><defs><style>.cls-1{isolation:isolate;}.cls-2{fill:#00b1c3;}.cls-3,.cls-6{fill:none;stroke-linecap:round;stroke-linejoin:round;stroke-width:9.97px;}.cls-3{stroke:#00b2d6;}.cls-4{fill:#00b2d6;}.cls-5{fill:#8e8dc4;}.cls-6{stroke:#633a8e;}.cls-7{fill:#8dd3f6;}.cls-8{fill:#1e0c2e;}.cls-9{fill:#35276d;}.cls-10{fill:#040011;}.cls-11{fill:#4f84c4;}.cls-12{fill:#005aa7;}.cls-13{fill:#0086cd;}.cls-14,.cls-54{fill:#fff;}.cls-15{fill:#2656a3;}.cls-16{fill:#25246d;}.cls-17{fill:#95c11f;}.cls-18{fill:#e74645;}.cls-19{fill:#f7b6a0;}.cls-20{fill:#21263d;}.cls-21{fill:#0d4885;}.cls-22{fill:#f2937c;}.cls-23{fill:#ece9e9;}.cls-24{fill:#d1413e;}.cls-25{fill:#f6b45f;}.cls-26{fill:#b7271f;}.cls-27{fill:#d42a26;}.cls-28{fill:#e7b88b;}.cls-29{fill:#d8a274;}.cls-30{fill:#e49f73;}.cls-31{fill:#ba7e60;}.cls-32{fill:#e8472b;}.cls-33{fill:#4d7f2f;}.cls-34{fill:#538933;}.cls-35{fill:#78ae4f;}.cls-36{fill:#a9bf49;}.cls-37{fill:#40623c;}.cls-38{fill:#4ca352;}.cls-39{fill:#ef7b1a;}.cls-40{fill:#e2581b;}.cls-41{fill:#f2b703;}.cls-42{fill:#6e9a37;}.cls-43{fill:#577732;}.cls-44{fill:#e8e7e7;}.cls-45{fill:#638839;}.cls-46{fill:#486631;}.cls-47{fill:#587e36;}.cls-48{fill:#9cbf61;}.cls-49{fill:#648e3d;}.cls-50{fill:#bc9271;}.cls-51{fill:#d6a57f;}.cls-52{fill:#ae8668;}.cls-53{fill:#9abae3;}.cls-54{mix-blend-mode:soft-light;}</style></defs><g class="cls-1"><g id="Capa_1" data-name="Capa 1"><path class="cls-2" d="M629.31,1715c-25.24-24.81-42.2-53.69-77.91-65.52-25-8.32-61.88-6.09-81.7-16.4,18.27,28.68,41.26,58,72.9,72.21,26.32,11.79,62.78,2.48,81.38,8.11Z"/><path class="cls-3" d="M347.3,1197.67c105.36,51.1,177.08,187.23,223.14,290.33,49.26,110.27,66.06,222.79,66.06,342.92"/><path class="cls-4" d="M378,1214.72c-20.09-29.15-31.26-60.72-64.08-79.12-23-12.9-59.6-17.71-77.1-31.6,12.5,31.62,29.5,64.83,57.88,84.73,23.6,16.56,61.16,14.34,78.36,23.41Z"/><path class="cls-4" d="M435.19,1269c18.84-30,43.42-52.72,47.35-90.13,2.76-26.24-7.3-61.75-1.45-83.31-24.11,24-47.89,52.72-55,86.66-5.87,28.22,11,61.85,9.48,81.23Z"/><path class="cls-4" d="M492.2,1349.32c18.84-30,43.42-52.7,47.34-90.12,2.76-26.24-7.29-61.75-1.44-83.31-24.11,24-47.89,52.72-55,86.65-5.88,28.24,11,61.85,9.48,81.23Z"/><path class="cls-4" d="M555.68,1446.24c21.78-27.9,48.53-48,56.23-84.86,5.4-25.84-1-62.17,7-83-26.41,21.4-53,47.59-63.44,80.63-8.71,27.5,4.68,62.65,1.2,81.78Z"/><path class="cls-4" d="M601,1574.14c25.89-24.14,55.47-39.83,68.85-75,9.38-24.66,8.76-61.55,19.93-80.91-29.45,17-59.79,38.71-75.31,69.69-12.92,25.78-5.2,62.61-11.64,81Z"/><path class="cls-4" d="M629.31,1672c30.58-17.84,62.89-26.61,83.7-58,14.6-22,22.13-58.11,37.29-74.52-32.47,10.09-66.85,24.56-88.83,51.35-18.28,22.3-18.88,59.92-29.21,76.39Z"/><path class="cls-4" d="M467.62,1299.88c-34.2-9.14-63.19-25.9-100.09-18.61-25.89,5.11-56.84,25.2-79.17,26,30,16,64.51,30.18,99,26.91,28.71-2.72,55.84-28.79,74.8-33.05Z"/><path class="cls-4" d="M526.67,1398.86c-34-9.8-62.67-27.13-99.71-20.54-26,4.6-57.32,24.09-79.66,24.45,29.72,16.53,63.92,31.42,98.49,28.82,28.75-2.16,56.39-27.7,75.43-31.59Z"/><path class="cls-4" d="M594.88,1541.29c-27.88-21.8-48-48.58-84.8-56.32-25.83-5.43-62.18.93-83-7.09,21.38,26.44,47.54,53,80.58,63.54,27.47,8.74,62.65-4.62,81.77-1.11Z"/><path class="cls-5" d="M1801.69,808.16c-22.46,29.35-63.3,37.89-50,83.54,11.66,40.16,38.52,71,36.49,116.25-2.6,57.88-48.09,41.08-81.58,70.8-34.21,30.34-22.77,48-18.22,86.58,4.21,35.73-16.74,77.35-47.25,97.91-26.06,17.57-64.6,13.7-94.86,24.12-33.88,11.67-50.57,38.43-77.25,56.94-9.21-12.89-2.94-31.33-5.76-46.85s-11.59-30.49-17.18-45c-12.69-33.07-21.29-79.83-17.22-113.88,4-33.65,20.61-76.2,56.68-86.48,17.49-5,39.29,2.41,50-17.9,7.67-14.48-2-33.43-7.26-48.44-14.79-42.19-24-70,5.72-106.75,13.39-16.56,29.85-29.19,49.89-36.51,16.16-5.89,41.3,1.22,55.13-8.14,24-16.3,3.64-69.18,23.13-95.5,25.46-34.35,78.79-61.65,116.43-30.88C1804,728.75,1824.22,778.69,1801.69,808.16Z"/><path class="cls-6" d="M1715.72,786.22c-75.62,103.52-132.27,219.76-180.33,338.1-53.26,131.13-82.18,264-80.47,405.37"/><path class="cls-7" d="M1436.42,1810.17c29.91,0,60.33,8.65,67.92,19.36l56.87,85.13c14.47,20.6-7.83,34.52-47.81,34.35H606.74c-40,.17-62.28-13.75-47.82-34.35l69.64-85.13c7.58-10.71,38-19.36,67.93-19.36Z"/><rect class="cls-8" x="621.9" y="255.4" width="876.32" height="1607.27" rx="31.82"/><rect class="cls-9" x="652.55" y="288.62" width="815.04" height="1540.82"/><path class="cls-8" d="M1238.44,367.54a22.64,22.64,0,0,1-22.64,22.63H904.32a22.63,22.63,0,0,1-22.63-22.63V284.08a22.64,22.64,0,0,1,22.63-22.64H1215.8a22.64,22.64,0,0,1,22.64,22.64Z"/><path class="cls-10" d="M1141.74,319.44a11,11,0,0,1-11,11H963.31a11,11,0,0,1-11-11h0a11,11,0,0,1,11-11h167.41a11,11,0,0,1,11,11Z"/><path class="cls-10" d="M1173.73,318.6a11.37,11.37,0,1,1-11.36-11.36A11.36,11.36,0,0,1,1173.73,318.6Z"/><rect class="cls-11" x="666.24" y="433.47" width="776.02" height="1357.3"/><rect class="cls-12" x="666.24" y="433.47" width="776.02" height="107.54"/><path class="cls-13" d="M772.33,487.24a43.6,43.6,0,1,1-43.6-43.6A43.61,43.61,0,0,1,772.33,487.24Z"/><path class="cls-14" d="M1421.92,464.72a8,8,0,1,1-8-8A8,8,0,0,1,1421.92,464.72Z"/><path class="cls-14" d="M1421.92,487.24a8,8,0,1,1-8-8A8,8,0,0,1,1421.92,487.24Z"/><path class="cls-14" d="M1421.92,509.76a8,8,0,1,1-8-8A8,8,0,0,1,1421.92,509.76Z"/><rect class="cls-15" x="714.05" y="591.88" width="675.59" height="835.9"/><rect class="cls-16" x="714.05" y="591.88" width="675.59" height="58.58"/><path class="cls-14" d="M1283.64,620.25a15.81,15.81,0,1,1-15.8-15.81A15.8,15.8,0,0,1,1283.64,620.25Z"/><path class="cls-17" d="M1327.35,620.25a15.81,15.81,0,1,1-15.81-15.81A15.81,15.81,0,0,1,1327.35,620.25Z"/><path class="cls-18" d="M1371.05,620.25a15.81,15.81,0,1,1-15.81-15.81A15.81,15.81,0,0,1,1371.05,620.25Z"/><path class="cls-19" d="M1062.2,1252.72c-13.31-4.22,2.13-43,4.91-54,22-87,32.4-137.9,48.77-153.2,2-4.22,61.55-38,59.84,21.68.45,20.17-59.72,160.74-73.59,189.85C1102.13,1257,1089.92,1263.69,1062.2,1252.72Z"/><path class="cls-19" d="M1102.13,1257c-32.27,52-79.22,50.58-170.65,79l-5.43-17.82c10.82-12.83,127.69-69.09,133.06-91.82C1059.11,1226.35,1101.73,1211.81,1102.13,1257Z"/><path class="cls-19" d="M902.4,1371.49c1.76,2,4.69-1.17,6.11-2.43,11.27-10,37.5-36.75,31.91-49.21-8-17.83-55.84-13-62.79-9-.28,6.18,17.12,5.62,26.45,7.84-12.61,12.72-43.15,23.44-46.87,31.15.93,9,22.52-7.72,37.8-10.3-24.77,16.11-38.11,25.32-35.93,28.21,2.24,6.44,32.08-11.55,41.89-19.7-10.74,10.7-19.71,18.1-24,23.11a4,4,0,0,0-.3,5.37c6,1.75,27.79-18.83,34.66-24.7-1.18,4.75-5.66,8.77-7.91,13-.81,1.51-2.43,4.51-1.28,6.31C902.23,1371.26,902.31,1371.38,902.4,1371.49Z"/><path class="cls-14" d="M990.75,1278.26c-27.74,16.19-59.87,34.18-64.7,39.91l5.43,17.82c29-9,53.53-15,74.53-20.69C1006,1315.3,1004.66,1301.1,990.75,1278.26Z"/><path class="cls-14" d="M902.4,1371.49c1.76,2,4.69-1.17,6.11-2.43,11.27-10,37.5-36.75,31.91-49.21-8-17.83-55.84-13-62.79-9-.28,6.18,17.12,5.62,26.45,7.84-12.61,12.72-43.15,23.44-46.87,31.15.93,9,22.52-7.72,37.8-10.3-24.77,16.11-38.11,25.32-35.93,28.21,2.24,6.44,32.08-11.55,41.89-19.7-10.74,10.7-19.71,18.1-24,23.11a4,4,0,0,0-.3,5.37c6,1.75,27.79-18.83,34.66-24.7-1.18,4.75-5.66,8.77-7.91,13-.81,1.51-2.43,4.51-1.28,6.31C902.23,1371.26,902.31,1371.38,902.4,1371.49Z"/><path class="cls-18" d="M1192,1062.62,1165.4,1220c-24-7.4-78.53-14.33-103.2-27.25C1084,1116,1102,1061.59,1102,1061.59s12.17-37.44,54.85-31.61C1156.83,1030,1190.67,1031.81,1192,1062.62Z"/><path class="cls-20" d="M1219.71,1427.78c-.5-1.44-1-2.9-1.42-4.39a1.67,1.67,0,1,1,3.21-.91c.51,1.8,1.1,3.57,1.73,5.3Z"/><path class="cls-21" d="M1080.45,1427.78l1.82-15,22-85.33h210.3l9.42,79a168,168,0,0,1,2.43,21.3Z"/><path class="cls-21" d="M1210.79,1427.78h-131.5c1.85-9.44,3-15,3-15l-.06,3.15Z"/><path class="cls-21" d="M1177.28,1427.78c.31-20.08.88-32.62.88-32.62s120.58-39.58,144.7,32.62Z"/><path class="cls-20" d="M1175.83,1427.78c.34-10.88.83-21.78,1.58-33.12a1.69,1.69,0,0,1,1.78-1.55,1.67,1.67,0,0,1,1.56,1.77c-.75,11.26-1.23,22.09-1.57,32.9Z"/><path class="cls-21" d="M1248.14,971.31c-6,4.89-17.09-18.24-20.3-24.71-8.5-17.16-6-24.42-4.57-43.19,1.22-16.22-2.79-74.31,33.27-62.93,30.08,9.5,31.75,53.5,22.37,79.1C1278.91,919.58,1265.86,956.74,1248.14,971.31Z"/><polygon class="cls-19" points="1253.48 940.61 1191.68 937.91 1188.32 1014.76 1250.13 1017.45 1253.48 940.61"/><path class="cls-22" d="M1232.75,982.32c6.78-12.73,11-25.74,10.74-42.15l-51.81-2.26-2.92,66.79C1205.14,1002.92,1225.53,995.9,1232.75,982.32Z"/><polygon class="cls-19" points="1163.27 1024.48 1190.27 1006.13 1248.4 1008.71 1278.91 1029.62 1163.27 1024.48"/><path class="cls-18" d="M1335.05,1194.7l7,233.08H1074.93c1.89-39.07,18.17-91.15,19.38-110.24,2.26-35.88,7-63.51,9.26-99.4l-.13-139.94c.68-33.41,27-48.58,27-48.58l57.88-22.17,16.5,18.88,45.67-17.15,73.85,28.13s23.36,15.86,17.73,42.37Z"/><path class="cls-21" d="M1194.63,850.16c13.06-3.17,8.87,7.25,5.13,19.69l-18.26,8.09c-15.38,6.66-6.78,16.12-8.78,29.43-.83,5.47-2.92,10.79-4,16.11-3.48-5.6-9.18-32.22-9.34-38.6,0,0-4.55-27.6,14.31-33.32C1173.66,851.56,1186.54,849.08,1194.63,850.16Z"/><path class="cls-19" d="M1249.26,945.16c-4.16,13.77-10.47,25.3-22.35,34.07-11.63,8.57-24,13.51-36.64,4.73-10.08-7-17.15-17.81-21.54-29-10.13-25.64-7.2-62.57,7.73-85.19,16.4-24.86,52.33-22.69,68.25,2.14C1257.68,892.16,1256,922.94,1249.26,945.16Z"/><path class="cls-21" d="M1243.74,927.88c-.74,4.63-1.77,7.82-4.73,11.43-7.78,9.52-21.29-.54-29.7-1.7-5.6-.78-15.22-1-20,2.15-1.93,1.24-4.89,3.66-7.21,4.12-4,.81-7.93,1.44-11.68-1.13A33.23,33.23,0,0,1,1164,937a84.46,84.46,0,0,0,4.72,18c4.39,11.14,11.46,22,21.54,29,12.67,8.78,25,3.84,36.64-4.73,11.88-8.77,18.19-20.3,22.35-34.07a123.35,123.35,0,0,0,4.78-25.58C1249,919.88,1244.79,921.34,1243.74,927.88Z"/><path class="cls-22" d="M1227.84,928.45c.06,2.09-3.73,3.88-8.46,4s-8.61-1.46-8.67-3.55,3.74-3.89,8.47-4S1227.79,926.36,1227.84,928.45Z"/><path class="cls-22" d="M1185.82,932c.06,2.08-3.73,3.88-8.46,4s-8.62-1.46-8.67-3.56,3.73-3.89,8.46-4S1185.76,929.9,1185.82,932Z"/><path class="cls-22" d="M1195.81,939.35a16.49,16.49,0,0,0,5.51-.88,1.69,1.69,0,0,0,1-2.16,1.66,1.66,0,0,0-2.16-1c-3.09,1.15-8.2.77-9.41-.71-.15-.16-.47-.55.23-1.72,11.44-19,8.37-23.63,3.9-27a8,8,0,0,1-1.18-1,1.68,1.68,0,0,0-2.51,2.23,12.63,12.63,0,0,0,1.66,1.44c2.57,2,6.09,4.65-4.74,22.66-1.68,2.78-.69,4.7.06,5.59C1189.67,938.61,1192.78,939.35,1195.81,939.35Z"/><path class="cls-21" d="M1225.58,906.66a2.15,2.15,0,0,0,1.71-.83,2.18,2.18,0,0,0-.36-3.05c-5-4-14.16-4.9-19.75,0a2.17,2.17,0,0,0,2.88,3.26c3.78-3.33,10.61-2.67,14.18.14A2.15,2.15,0,0,0,1225.58,906.66Z"/><path class="cls-21" d="M1189,906.66a2.15,2.15,0,0,0,1.71-.83,2.18,2.18,0,0,0-.36-3.05c-5-4-14.15-4.9-19.75,0a2.17,2.17,0,0,0,2.87,3.26c3.79-3.33,10.62-2.67,14.19.14A2.13,2.13,0,0,0,1189,906.66Z"/><path class="cls-21" d="M1175.75,839c-12.48,10.57-20.52,24.51-13,34.86,6.7,9.24,18.28,12,29.14,12.19a117,117,0,0,0,26.81-3.1c3.56-.78,8.43-3.24,12-3.19,13,.21,12.24,35.08,13.57,47.25,3.77-.31,4.75,1.21,6.14-3,1-3.2,1.93-15,4.33-17.51,5.75-6.08,11.73.83,13.21,4.81-1.27-3.43-.81-8.57-1.26-12.18-1.07-8.41-6.34-22-3.29-29.17,2.55-6,10.62-8,11.73-15,0,0,.16-19-32-19.5C1243.2,835.38,1182.22,833.55,1175.75,839Z"/><path class="cls-20" d="M1183.58,916.87c.19,2.84-1,5.24-2.74,5.35s-3.25-2.1-3.43-4.94,1-5.23,2.75-5.35S1183.39,914,1183.58,916.87Z"/><path class="cls-20" d="M1220.51,914.44c.19,2.84-1,5.24-2.74,5.35s-3.24-2.1-3.42-4.94,1-5.24,2.74-5.35S1220.33,911.6,1220.51,914.44Z"/><path class="cls-22" d="M1196.87,952.46l.26,0c5.15-.8,8.17-2.51,9.25-5.22a1.68,1.68,0,0,0-3.12-1.24c-.41,1-1.89,2.4-6.64,3.14a1.68,1.68,0,0,0,.25,3.34Z"/><path class="cls-20" d="M1083.82,1373.61a1.68,1.68,0,0,0,1.6-1.19c6.62-21.66,10-41.7,11.44-67,1-17.19,2.61-35.73,4.22-53.68,1.73-19.33,3.52-39.32,4.46-57.92,1-19.39.17-38.79-.62-57.56-.49-11.8-1-24-1.05-35.94a1.66,1.66,0,0,0-1.67-1.66h0a1.67,1.67,0,0,0-1.67,1.67c0,12,.56,24.24,1,36.07.78,18.69,1.59,38,.62,57.24-.93,18.54-2.72,38.5-4.45,57.81-1.61,18-3.27,36.54-4.23,53.78-1.38,25-4.76,44.79-11.3,66.19a1.69,1.69,0,0,0,1.6,2.16Z"/><path class="cls-20" d="M1316.9,1425.22c-1.75.92-3.58,1.76-5.45,2.56h-9.6a84,84,0,0,0,13.5-5.51,1.67,1.67,0,1,1,1.55,3Z"/><path class="cls-20" d="M1259.3,1343.52a1.74,1.74,0,0,0,.85-.22,1.68,1.68,0,0,0,.59-2.29c-4.38-7.51-8.87-15.58-13.62-24.13-5.45-9.8-11.08-19.93-16.72-29.45-1.86-3.14-4-6.67-6.31-10.47-13.15-21.65-33-54.37-35-74a1.7,1.7,0,0,0-1.83-1.49,1.66,1.66,0,0,0-1.49,1.82c2,20.38,21.36,52.17,35.46,75.39,2.3,3.79,4.44,7.31,6.28,10.44,5.61,9.48,11.24,19.59,16.67,29.37,4.77,8.57,9.27,16.66,13.67,24.2A1.66,1.66,0,0,0,1259.3,1343.52Z"/><path class="cls-20" d="M1229.22,1350.21a1.8,1.8,0,0,0,.68-.14,1.67,1.67,0,0,0,.84-2.21c-1.48-3.33-4.47-8-7.65-13-3.63-5.7-9.7-15.24-9.13-17.24a1.64,1.64,0,0,0-.55-2.27,1.71,1.71,0,0,0-2.32.57c-1.8,2.88,1.42,8.54,9.18,20.74a120.75,120.75,0,0,1,7.43,12.58A1.66,1.66,0,0,0,1229.22,1350.21Z"/><path class="cls-19" d="M1241.08,1266.49c-13.56-3.26-5.67-44.91-2.63-55.83,26.23-94.12,26.26-142.77,41.48-159.2,1.74-4.37,58.68-35.91,61.24,23.74,1.89,20.09-43.5,174.71-64.38,196.91C1276.79,1272.11,1269.5,1275.46,1241.08,1266.49Z"/><path class="cls-18" d="M1333.85,1220l15.43-107.49s9.17-32.48-10-58.49c0,0-37.5-51.24-81.91,19.21l-26.91,113.42S1282.32,1223.29,1333.85,1220Z"/><path class="cls-20" d="M1230.44,1188.3a1.65,1.65,0,0,0,1.61-1.27c2.68-10.67,4.58-20.45,6.41-29.9,1-5.31,2-10.43,3.1-15.4,1.92-8.86,4.39-18.15,6.78-27.13,3.48-13.07,7.07-26.58,9.27-39.79a1.67,1.67,0,0,0-3.3-.55c-2.17,13-5.74,26.49-9.2,39.48-2.4,9-4.88,18.34-6.81,27.28-1.09,5-2.08,10.14-3.12,15.47-1.83,9.41-3.72,19.15-6.36,29.74a1.66,1.66,0,0,0,1.21,2A1.48,1.48,0,0,0,1230.44,1188.3Z"/><path class="cls-19" d="M1268.42,920.78c-.23,7.92-5,16.69-12.29,19.65-9.84,4-13.17-5-12.79-13.65.32-7,3.91-18.88,11.93-21C1262.84,903.77,1268.62,914.29,1268.42,920.78Z"/><path class="cls-22" d="M1253.68,937.23a1.76,1.76,0,0,0,.59-.11,1.67,1.67,0,0,0,1-2.15c-3-8.19-2.19-16.68,2-19.33a1.68,1.68,0,0,0-1.8-2.83c-5.61,3.59-7,13.4-3.29,23.33A1.67,1.67,0,0,0,1253.68,937.23Z"/><path class="cls-22" d="M1252.26,923.88a1.66,1.66,0,0,0,1-.34c1.53-1.14,4.82-.8,7.22,0a1.68,1.68,0,0,0,1.06-3.18c-3.22-1.08-7.61-1.51-10.29.5a1.68,1.68,0,0,0,1,3Z"/><path class="cls-23" d="M1163.16,930.16s8.6,5.63,22,.4c0,0,12.11-4.49,22.76,1,0,0,15.26,3.38,28.42-2.89,0,0,4,31.66-6.06,48.49,0,0-19.54,27.53-49.76,1.47C1180.49,978.64,1164,962.76,1163.16,930.16Z"/><polygon class="cls-23" points="1244.15 921.12 1236.31 928.68 1236.31 933.51 1244.03 922.79 1244.15 921.12"/><polygon class="cls-23" points="1232.34 968.19 1250.36 941.29 1252.26 941.29 1230.25 977.17 1232.34 968.19"/><polygon class="cls-24" points="1204.82 1026.33 1210.71 1023 1210.71 1091.08 1198.17 1091.08 1198.17 1015.19 1204.82 1026.33"/><polygon class="cls-25" points="1204.82 1026.33 1250.87 1000.32 1271.05 1016.02 1220.9 1052.64 1204.82 1026.33"/><polygon class="cls-25" points="1204.82 1026.33 1188.97 999.77 1170.62 1014.23 1183.52 1047.52 1204.82 1026.33"/><path class="cls-20" d="M1200.09,1053.1a4.35,4.35,0,1,0,4.35-4.35A4.35,4.35,0,0,0,1200.09,1053.1Z"/><path class="cls-20" d="M1200.09,1075.66a4.35,4.35,0,1,0,4.35-4.35A4.35,4.35,0,0,0,1200.09,1075.66Z"/><path class="cls-24" d="M1174.27,1136.15c-.53,12.83-8.12,9.46-18.38,9-5.85-.25-22.76,2.5-27.31-.8-4.9-3.55-1.56-24.73-1.07-30.53s-.14-12.53,1.64-17.83c2.31-6.89,6.37-5,13.93-4.46,7.76.57,25.16-1.51,31.18,4.12C1181.1,1102.1,1174.64,1127.3,1174.27,1136.15Z"/><path class="cls-20" d="M1318.32,1221.74c.84,0,1.62,0,2.3-.09,14.44-1.29,15.36-5.16,16.34-18.39,1-13.75,4.26-31.83,7.39-49.32,2.32-13,4.52-25.29,5.72-35.26a1.67,1.67,0,1,0-3.31-.4c-1.2,9.87-3.38,22.12-5.7,35.07-3.14,17.57-6.39,35.74-7.42,49.66-.92,12.33-1.06,14.22-13.31,15.31-7.73.68-29.91-3.37-36.16-7.21a1.67,1.67,0,0,0-1.76,2.84C1288.81,1217.89,1308.55,1221.74,1318.32,1221.74Z"/><path class="cls-26" d="M1278.08,886.53c-2.28-.27-102.31,15.24-147.2,3,0,0-39.65-10.9,30-25Z"/><path class="cls-27" d="M1158.55,864.49c8.91-22.28,16-28.5,22.28-34,20.63-17.89,42-18.13,67.4-11.14,27.84,7.66,39.09,41.51,37.79,67.16C1286,886.53,1164,892.2,1158.55,864.49Z"/><path class="cls-27" d="M1239.5,814.7c5.41,7.22-7,5.55-10.4,3.55C1219.6,812.74,1234.93,808.61,1239.5,814.7Z"/><rect class="cls-28" x="882.42" y="1150.62" width="227.5" height="232.98"/><rect class="cls-29" x="774.96" y="1150.62" width="107.55" height="232.98"/><rect class="cls-30" x="882.42" y="1150.62" width="227.5" height="53.94"/><rect class="cls-31" x="774.96" y="1150.62" width="107.55" height="53.94"/><rect class="cls-28" x="882.42" y="1150.62" width="233.03" height="43.94"/><rect class="cls-29" x="768.66" y="1150.62" width="113.84" height="43.94"/><rect class="cls-29" x="905.06" y="1322.86" width="72.27" height="39.99"/><polygon class="cls-31" points="855.23 1263.29 827.89 1263.29 841.56 1245.04 855.23 1263.29"/><rect class="cls-31" x="836.26" y="1256.96" width="10.6" height="44.45"/><polygon class="cls-31" points="823.28 1263.29 795.94 1263.29 809.61 1245.04 823.28 1263.29"/><rect class="cls-31" x="804.31" y="1256.96" width="10.6" height="44.45"/><rect class="cls-31" x="795.94" y="1306.99" width="59.29" height="10.6"/><path class="cls-19" d="M998.93,1384.33c-2.14-1.46,1.59-5.51,1.59-5.51a104,104,0,0,0,30.91-13.38l8.64-5-3.9-7.52-12.25-2.51c-8.92-.83-9.83-7.55-9.83-7.55l30.16-1,26.18,6.69,10.59,20-14.77,8.1c-18.64,18.16-56.54,10.78-56.54,10.78Z"/><path class="cls-19" d="M1115.66,1336.46c46.24-16.09,96.61-56.4,121.42-120.15,0,0,38.53-20.36,54.6,28.73,0,0-35.24,107.11-165.1,122.08C1123.33,1356.75,1119.65,1346.54,1115.66,1336.46Z"/><path class="cls-20" d="M1003.28,1385.94c6.36,0,16.93-4.89,22.63-7.53,1.48-.68,2.65-1.23,3.16-1.4a.42.42,0,0,0-.27-.79c-.55.19-1.68.71-3.24,1.43-5.24,2.43-16.11,7.45-22.28,7.45a.38.38,0,0,1-.15,0,.41.41,0,0,0-.42.41.41.41,0,0,0,.41.42Z"/><path class="cls-20" d="M1016.89,1389h.07c10.06-1.67,14.67-4,20.07-7.11a.44.44,0,0,0,.16-.58.41.41,0,0,0-.57-.15c-5.34,3.07-9.87,5.37-19.79,7a.42.42,0,0,0-.35.48A.43.43,0,0,0,1016.89,1389Z"/><path class="cls-20" d="M1034.08,1389h.09a34.08,34.08,0,0,0,9.56-3.42l1.33-.67a.41.41,0,0,0,.19-.56.42.42,0,0,0-.56-.19l-1.34.67a32.87,32.87,0,0,1-9.36,3.35.42.42,0,0,0-.32.5A.42.42,0,0,0,1034.08,1389Z"/><path class="cls-14" d="M998.93,1384.33c-2.14-1.46,1.59-5.51,1.59-5.51a104,104,0,0,0,30.91-13.38l8.64-5-3.9-7.52-12.25-2.51c-8.92-.83-9.83-7.55-9.83-7.55l30.16-1,26.18,6.69,10.59,20-14.77,8.1c-18.64,18.16-56.54,10.78-56.54,10.78Z"/><path class="cls-14" d="M1132.57,1330c3.83,9.69,7.41,25.39,10.56,35.34-12.43,1.15-48,3.83-62.11,3.15l-10.59-20S1109.53,1337.58,1132.57,1330Z"/><path class="cls-32" d="M898.4,903.13c6.41.17,12.67-3,19.18.09,5.41,2.59,7.82,7.76,8.49,13.61,1.31,11.68-6.21,20.17-15.59,25.18-15.49,8.26-39.48-8.65-36.16-27.76C876.18,903.61,886.11,898,895,903Z"/><path class="cls-33" d="M908.71,893.1c-2.8.11-4.5,4.42-5.35,6.61a21.24,21.24,0,0,1-1.19,3.48,2.21,2.21,0,0,1-3,.36c-1.35-1.13,1.42-5.84,2.32-7.11,1.27-1.76,4.27-3.89,6.47-3.82a1.46,1.46,0,0,1,.94.24Z"/><path class="cls-33" d="M904.07,903.91c.15.41-.57.81-.79,1.11-.34.45-.44,1-.74,1.5-1.23,1.91-4.08,1.51-5.29-.12-.63-.88-2.29-1.77-1.31-2.75S903.4,902,904.07,903.91Z"/><path class="cls-33" d="M898.46,895.4a12.4,12.4,0,0,1,1.12,2.88c.93,2.36,4,7.34-1.89,6.77a36.67,36.67,0,0,1-1.57-6.48c-.14-.65-.8-2.26-.43-3.23A4.53,4.53,0,0,0,898.46,895.4Z"/><path class="cls-34" d="M898.56,895.55c-.48.2-3.2.45-2.8-.33s3.11,0,2.62.33Z"/><path class="cls-33" d="M887,898.78c-3.46.21-6,1.92-9.21,3.28,2.73-1.16,6.46-.76,9.38-.39a18.34,18.34,0,0,1,8,3c.77.52,3.12,3,3.05.89-.05-1.25-1.86-3.07-2.71-3.87A11.25,11.25,0,0,0,887,898.78Z"/><path class="cls-33" d="M909.08,900.44c3,.06,6,1.15,8.83,2.13a8.29,8.29,0,0,0,1.29.38,41.71,41.71,0,0,0-4.25.35c-1.66.05-3.28,0-4.9.2-3.51.43-7,.84-9.94,2.73C900.09,902.31,906,900.37,909.08,900.44Z"/><path class="cls-33" d="M900.53,907.59c-.36.74,1.78,1.2,2.46,1.76a29.26,29.26,0,0,1,3.12,3.08,34.28,34.28,0,0,1,4.6,6.71,7.24,7.24,0,0,0-.36-2.16c-1-4.17-2.91-10.22-6.8-12.75C903.55,904.23,902,904.46,900.53,907.59Z"/><path class="cls-33" d="M899.2,907.59c.35.74-1.8,1.2-2.45,1.76a28.54,28.54,0,0,0-3.14,3.08,35.17,35.17,0,0,0-4.6,6.71,7.26,7.26,0,0,1,.37-2.16c1-4.17,2.9-10.22,6.78-12.75C896.16,904.23,897.67,904.46,899.2,907.59Z"/><path class="cls-32" d="M853.9,920.38c6.39.18,12.68-3,19.15.09,5.43,2.58,7.84,7.76,8.48,13.6,1.33,11.69-6.18,20.19-15.57,25.19-15.49,8.24-39.47-8.66-36.15-27.78,1.84-10.62,11.8-16.27,20.66-11.22Z"/><path class="cls-33" d="M864.21,910.34c-2.83.12-4.52,4.43-5.37,6.61a21.68,21.68,0,0,1-1.19,3.49,2.22,2.22,0,0,1-3,.36c-1.35-1.14,1.44-5.85,2.33-7.12,1.26-1.77,4.26-3.89,6.47-3.81a1.38,1.38,0,0,1,1,.24Z"/><path class="cls-33" d="M859.56,921.14c.15.41-.57.82-.78,1.13a16,16,0,0,0-.76,1.49c-1.22,1.91-4.06,1.5-5.27-.12-.65-.87-2.32-1.76-1.32-2.75S858.89,919.25,859.56,921.14Z"/><path class="cls-33" d="M854,912.64a12.75,12.75,0,0,1,1.12,2.89c.91,2.36,4,7.32-1.89,6.77a36.7,36.7,0,0,1-1.58-6.5c-.13-.64-.79-2.25-.43-3.22A4.56,4.56,0,0,0,854,912.64Z"/><path class="cls-34" d="M854.05,912.78c-.48.21-3.2.46-2.79-.32s3.1,0,2.61.32Z"/><path class="cls-33" d="M842.53,916c-3.47.2-6,1.93-9.22,3.26,2.72-1.16,6.46-.74,9.39-.37a18.37,18.37,0,0,1,7.95,2.94c.78.52,3.12,2.95,3,.89,0-1.23-1.84-3.08-2.7-3.87A11.25,11.25,0,0,0,842.53,916Z"/><path class="cls-33" d="M864.56,917.69c3,.07,6,1.15,8.83,2.12a7.51,7.51,0,0,0,1.31.37c-1.45-.09-2.79.32-4.26.35-1.66.06-3.29,0-4.9.21-3.51.44-7,.83-9.94,2.74C855.58,919.55,861.46,917.63,864.56,917.69Z"/><path class="cls-33" d="M856,924.82c-.35.75,1.79,1.22,2.46,1.78a26.6,26.6,0,0,1,3.12,3.07,35,35,0,0,1,4.6,6.7,6.53,6.53,0,0,0-.35-2.14c-1-4.17-2.92-10.22-6.8-12.75C859,921.48,857.52,921.7,856,924.82Z"/><path class="cls-33" d="M854.67,924.82c.38.75-1.77,1.22-2.44,1.78a28.33,28.33,0,0,0-3.13,3.07,35.42,35.42,0,0,0-4.6,6.7,7.11,7.11,0,0,1,.36-2.14c1-4.17,2.91-10.22,6.81-12.75C851.67,921.48,853.18,921.7,854.67,924.82Z"/><path class="cls-35" d="M876.09,893.81c-1.56,4.19-2,8.65-2.59,13.05-.81,5.59-1.74,11.3-1.37,16.95,0,.69,0,1.43.11,2.1a5.58,5.58,0,0,1-2.73-.24c-.76-.63-.33-1.48-.21-2.41.27-2.25.16-4.42.21-6.69a101.17,101.17,0,0,1,2-15.64,50.1,50.1,0,0,1,4-13.06c.59-1.17,4.43-7.35,5.26-5.09,0,0-1.42,2.49-1.84,3.42C878,888.24,876.89,891.71,876.09,893.81Z"/><path class="cls-36" d="M870.93,894.55c-.7,8.28-.66,16.71-.66,25.06a8.17,8.17,0,0,1-.55,3.95c-.17.13-.45.09-.63.16a2.11,2.11,0,0,1-.15.6c-2.56.18-2.31-1.43-2.18-3.48.16-2.69,0-5.49.21-8.18.62-6.69.75-13.56,1.67-20.24.85-6,1.2-14.06,5.44-18.79-.5,3.06-.69,6-1.34,9.09A94.1,94.1,0,0,0,870.93,894.55Z"/><path class="cls-37" d="M857,901.44a37,37,0,0,0-6.94-6.48c-.86-.62-4.16-3.1-5.27-2.66.07,0-.28-.09-.23-.07.33.93,2.69,2.73,3.6,3.52a50.77,50.77,0,0,1,6.17,6.27c3.41,4.3,5.46,9.17,7.39,14.27a22.45,22.45,0,0,1,1.43,6.82c.09,1.48.21,3.68,2.33,3.34s.79-5.83.43-7.57A42.13,42.13,0,0,0,857,901.44Z"/><path class="cls-38" d="M861.82,874.5c1.87,2.71,2.82,6.37,4,9.13a70.24,70.24,0,0,1,3.89,11.74c1.47,6.55,1.59,13.35,1.8,20.09.09,3.12,1.54,13.64-3.9,10.81,2.69-9.72,1.57-21.73-.91-31.4-.92-3.57-1.94-7.13-3.07-10.56-2-6-2.33-8.77-2-9.66Z"/><path class="cls-35" d="M853.87,891c-1.24-1.3-3.89-3.76-5.72-3.74.63,1.49,1.5,2,3.56,4.81,4.7,6.51,8.86,12.91,11.21,21a58.71,58.71,0,0,1,2.38,12.15,8.66,8.66,0,0,1,2.44,0c.09,0-2.39-13.61-2.83-14.93C862.12,901.92,859.19,896.56,853.87,891Z"/><path class="cls-37" d="M880.3,898.27c-.95,2-2.08,4.09-2.83,6.24a47.41,47.41,0,0,0-2.16,9.74c-.52,3.33-.41,6.09-.94,11.25a21,21,0,0,0-2.51,0c-.24-8.59,1.79-19.7,6-26.93,2-3.46,4.81-7.55,8-9.39.78,0-1,2-1.49,3C883.49,893.9,881.12,896.52,880.3,898.27Z"/><path class="cls-35" d="M869.81,925.5a79.64,79.64,0,0,0-2.95-23.14c-1.23-4.79-4.36-11.87-8.54-14.8-2.08-1.48-2-.35-3.72.84a32,32,0,0,1,7.64,11.53,95,95,0,0,1,4.62,16.17c.61,3.15.65,6.28,1.06,9.37.28.12.44-.11.56-.12Z"/><path class="cls-39" d="M885.39,951.55c-1.49,10.52-4.09,19.94-5.25,30.31-1.26,11.23-5.29,18.82-8.68,29.35-.94,2.91-.7,12.7-4.63,13.84-4.5,1.31-3.86-9.83-4.65-12.69-2.8-10.36-3.29-21.1-5.78-31.54-1.27-5.3-3.54-9.93-4.28-15.34s0-11,0-16.51c-.08-6.45-1.63-15.39,1.62-20.86,4.16-7,20.29-5.28,25.73-2C887.62,931,886.61,943.16,885.39,951.55Z"/><path class="cls-40" d="M876.4,933v.08c0,.44-.49.59-.85.72a13.78,13.78,0,0,1-3.83.64,13.06,13.06,0,0,1-4.75-.12c-1.26-.42-1.26-1.36,0-1.76,1.48-.49,3.14-.23,4.68-.26,1.37,0,3.14-.41,4.4.27.15.07.38.23.35.43Z"/><path class="cls-40" d="M865.46,944.46a5.42,5.42,0,0,1-2.67.53,24.73,24.73,0,0,1-2.85-.08c-.53,0-2-.5-1.55-1.32s1.93-.84,2.75-.76c1.36.12,3.12,0,4.32.69.49.29.49.65,0,.94Z"/><path class="cls-40" d="M878.72,959.06c-1.83,1.16-4.37,1.26-6.49,1.14-.59,0-2.14-.14-2.14-1.05,0-1.07,2.06-1.1,2.71-1a44.49,44.49,0,0,0,5,.16c.21,0,1.55.34.89.77Z"/><path class="cls-40" d="M866.66,965.2a4,4,0,0,1-2.7.93,7,7,0,0,1-3.86-.38c-1.17-.6,0-1.46.81-1.51s1.9,0,2.86,0a6,6,0,0,1,2.74.37c.29.13.35.36.15.59Z"/><path class="cls-40" d="M871.46,951.43a11.73,11.73,0,0,1-2.21.56,11.34,11.34,0,0,1-2.72.36c-.64,0-1.65-.09-2-.76s.52-1,1-1.15a9.73,9.73,0,0,1,2.95-.28,8.58,8.58,0,0,1,2.8.39c.41.14.9.61.23.88Z"/><path class="cls-40" d="M874.24,978.19a8.07,8.07,0,0,1-6.08.32c-.45-.21-.74-.72-.3-1.11A2.89,2.89,0,0,1,870,977c1.28.24,2.56.29,3.87.42.37.06,1.07.52.41.78Z"/><path class="cls-40" d="M868,990.69a16.57,16.57,0,0,1-4.7.37c-.52,0-1.59-.34-1.59-1,0-.91,1.57-1,2.15-1.06a13.67,13.67,0,0,1,4.14.7c.71.19.72.85,0,1Z"/><path class="cls-40" d="M872.33,998.65a11.75,11.75,0,0,1-3.39.26c-.52,0-1.87-.12-1.87-.92s1.78-1,2.36-.88c1,.13,1.93.22,2.9.43.8.17.8,1,0,1.11Z"/><path class="cls-40" d="M868.27,1006.94c-1.17.91-3,.8-4.44.63-.55-.06-2.08-.5-1.6-1.37s2-.87,2.8-.77a12.26,12.26,0,0,1,2.59.3c.48.15,1.33.68.65,1.21Z"/><path class="cls-40" d="M859.65,953.65a8.88,8.88,0,0,1-4.1.71c-.65,0-2.32-.15-2.32-1.14s1.67-1.09,2.32-1.12a18,18,0,0,1,3.36.2c.69.08,1.87.84.74,1.35Z"/><path class="cls-40" d="M859.07,933.58a7.29,7.29,0,0,1-3.1.39c-.62,0-2.23-.13-2.23-1.08s2.14-1.17,2.82-1a9,9,0,0,0,1.62.15c.53,0,1.38.08,1.69.64s-.44.83-.8,1Z"/><path class="cls-40" d="M870.65,927.9a7.68,7.68,0,0,1-3,.35c-.61,0-2.19-.15-2.19-1.08s2.1-1.16,2.77-1a14.45,14.45,0,0,1,2.47.52c.88.32.88.93,0,1.25Z"/><path class="cls-40" d="M875.69,943.35a10,10,0,0,1-4.07.9c-.89.06-2.46.11-3-.82-.65-1.18,1.74-1.5,2.35-1.51,1.55,0,3.26-.38,4.71.35.58.3.52.78,0,1.08Z"/><path class="cls-41" d="M867.79,938.25c-1.1.3-2.27.27-3.39.49-.67.11-2,0-2.34-.66s.86-1.12,1.33-1.15a12.77,12.77,0,0,1,4.4.2c.8.23.8.88,0,1.12Z"/><path class="cls-41" d="M874.91,968.69c-1.51,1.07-3.79.5-5.53.52-.57,0-2.08-.17-2.08-1,0-1.06,2-1,2.64-1,1.54.13,3.72.06,5,1.06a.25.25,0,0,1,0,.43Z"/><path class="cls-41" d="M868.51,974.17a9.73,9.73,0,0,1-3.56.37c-.59,0-2.12-.14-2.12-1,0-1.06,2-1.09,2.69-1a16.94,16.94,0,0,1,3,.56c.8.23.8.86,0,1.11Z"/><path class="cls-41" d="M874.26,990.8a10.28,10.28,0,0,1-1.76.43c-.5.1-1.46,0-1.75-.48s.66-.84,1-.86a5.65,5.65,0,0,1,2.52.25c.47.16.47.49,0,.66Z"/><path class="cls-41" d="M866,999.88a19.26,19.26,0,0,1-2.64.08c-.47,0-1.68-.13-1.68-.83s1.21-.86,1.68-.83c.91.05,1.75.26,2.64.36.31.05,1,.2,1,.61s-.64.59-1,.61Z"/><path class="cls-41" d="M868.82,957.38a4.8,4.8,0,0,1-2.13.63c-.57.1-1.61,0-1.91-.54s.7-.89,1.07-.93a7.39,7.39,0,0,1,2.57.08c.3.06.83.45.4.76Z"/><path class="cls-41" d="M862.5,927.49a15.52,15.52,0,0,1-1.68-.07c-.48,0-1.86-.45-1.43-1.25s1.81-.82,2.52-.7a6.65,6.65,0,0,0,1.09.15c.47,0,1.42.3,1.42.92,0,.8-1.4.93-1.92,1Z"/><path class="cls-41" d="M875.16,948.52a8.3,8.3,0,0,1-2.62.18c-.67,0-2.4-.18-2.4-1.18,0-1.23,2.3-1.21,3-1.13a5.58,5.58,0,0,1,2.39.51c1,.59.5,1.33-.41,1.62Z"/><path class="cls-42" d="M922,897.3a15.91,15.91,0,0,1-1.42-4.29c-3,1.25-11,7.18-12.69,10-2.49,4,4.21,9.84,7.38,13.82,10.14,12.74,22.9,24.14,30.86,38.54,5,9.06,9.43,18.75,14.41,27.7C974.43,952.5,935,921.64,922,897.3Z"/><path class="cls-42" d="M1002.66,934.2c-3.9,5.85-8.55,11.13-12.31,17.08-3.94,6.27-6.56,13.18-10.25,19.56-1.42,2.43-3.61,9.16-7.07,7.33-2-1.07-4-4.69-5.35-6.53s-3-4.45-3-6.94c0-4.75,6.25-12.58,9-16.41,3.85-5.45,9.39-9.79,13.5-15.09a91,91,0,0,0,10.64-17.43c2.06-4.4,3.58-8.5,6.45-12.4,2.54-3.43,6.53-6.7,8-10.59,5.33,6.2,10.72,12.76,10.56,15.44C1018.54,916.65,1007.84,926.45,1002.66,934.2Z"/><path class="cls-43" d="M962.22,865.79c-2.5,7.62-3.68,15.65-5.87,23.6-4.23,15.31-5.07,26.46-3.6,42.46.8,8.65.07,40.83,14.35,29.49-.05-.11-.09-.23-.14-.34,2-3.88-2.32-17.57-2.62-22.45-.45-7.33-.2-15,0-22.34.48-15.75,8-29.89,8.94-45.59Z"/><path class="cls-44" d="M982.57,937.65c-5,14-6.54,29.37-7,44.72-.51,15.62-1.45,31.06,0,46.44,1.17,12.65,6.54,32,2.66,44.24-2.18,6.84-7.54,8.77-14.29,9.4-11.39,1.06-10.89-2.36-9.36-12.06,2.93-18.85,2.11-39.21,2.22-58.55.08-15,1.34-29.79-.55-44.68-1.89-14.7-6.09-25.5-12.08-38.88a160.38,160.38,0,0,1-11-32.19c-1.64-7.8-6.09-26.13,8.31-21.82,2.43,13.05,9.94,26.35,14.51,38.81,5,13.6,6.25,27.23,9.28,40.95,1.87-14.5,2.34-25.82,7.93-39.53,6.34-15.57,9.08-31.37,11.33-47.39,4.11,1.16,8.5,3.06,12.82,3.58-.9,10.5-4.53,20.72-6.06,31.19A186.59,186.59,0,0,1,982.57,937.65Z"/><path class="cls-45" d="M941.49,874.27c2.43,13.05,9.94,26.35,14.51,38.81,5,13.6,6.25,27.23,9.28,40.95,1.87-14.5,2.34-25.82,7.93-39.53,6.34-15.57,9.08-31.37,11.33-47.39,4.11,1.16,8.5,3.06,12.82,3.58-.9,10.5-4.53,20.72-6.06,31.19a186.59,186.59,0,0,1-8.73,35.77c-5,14-6.54,29.37-7,44.72,0,1.32-.11,2.62-.15,3.94a11.66,11.66,0,0,0-3-1.47.34.34,0,0,0-.42.22c-.63,2.46-2.66,4.15-3.49,6.52-1.06-1.07-2.8-3-4.25-2.52a4.89,4.89,0,0,0-2.14,1.6c-.48.51-.95,1.6-1.6,1A11.48,11.48,0,0,1,958.8,990a.35.35,0,0,0-.61.07c-.31,1.15-.65,2.27-1,3.41a178.3,178.3,0,0,0-.94-26.33c-1.89-14.7-6.09-25.5-12.08-38.88-4.74-10.58-14.71-36.25-17-47.26C925.47,873.22,927.09,870,941.49,874.27Z"/><path class="cls-45" d="M941.49,874.27c1.3,6.93,4,13.94,7,20.84a48.34,48.34,0,0,0,2.38,8.3c.94,2.41,4.15,7.59.86,9.48a2.9,2.9,0,0,0-1.53,1.55,3.23,3.23,0,0,0,.44,2.48c.58,1.36-1.14,2.24-1.08,3.7a14,14,0,0,0,.62,3.32c.38,1.28.83,2.55,1.12,3.87.07.22.71,4.26-.2,3.93-2-.77-3-3.85-5.21-4.08a5.56,5.56,0,0,0-1.88.27c-4.79-10.76-14.58-36-16.88-46.91C925.47,873.22,927.09,870,941.49,874.27Z"/><path class="cls-46" d="M923.17,972.14c-5,2.36-10.94-.79-11.07-6.37-.17-6.38,7.36-9.69,12.24-6.4A7.29,7.29,0,0,1,923.17,972.14Z"/><path class="cls-46" d="M893,971c-4.63,3-11,.57-11.78-4.94-.95-6.31,6.1-10.53,11.33-7.87A7.28,7.28,0,0,1,893,971Z"/><path class="cls-47" d="M898.16,965.86c.24,1.26.47,2.53.73,3.77a35.68,35.68,0,0,0,1.45,5.22c.27.74,1.71,3.08,1.15,3.86-.85,1.21-3.31-1.69-3.78-2.28-1.77-2.31-2.8-4.88-4.12-7.39a13.77,13.77,0,0,1-1.73-4.69c-.16-1.17-.64-2.79-.06-3.79a3.25,3.25,0,0,1,4.67-.56C897.79,961.34,897.84,964.12,898.16,965.86Z"/><path class="cls-47" d="M910.77,971c-1.09,1.8-2.25,3.64-4.16,4.65-2.88,1.53-1.84-.63-.72-2.16s1.25-4.09,1.67-5.93,1-8.24,4.18-5.67C914.49,964.09,912.19,968.65,910.77,971Z"/><path class="cls-46" d="M933.43,934.94c2.16,2.32,2.46,4.51,1.26,7.07,4.77-1.6,9.11,11.25-.13,11.62,5.48,5.14-2,15.22-9,10.75-4.73-3-7.25-7.81-8.35-12.67a18.29,18.29,0,0,1,1.46-11.82C920.88,935.4,928.91,930.09,933.43,934.94Z"/><path class="cls-48" d="M892.43,971.88c-1-2-5.67-8.36-4.13-10.41,2.25-3,4.5-.23,5.29,2.14,1.41,4.24,4.15,7.83,7,14.1-.36-4-.13-10.16,1.1-14,.92-.93,2.28-.52,4,.71-.05,4.37-1.11,7.47-1.42,10.95,4.89-.43,5-8.29,9.28-13.24,1.21.62,2.45,1.25,3.68,1.8-2.73,7.42-7.59,13.55-7.39,21.83.11,4.45,2.16,7.26-3.31,7.79-2.69.27-8,.59-9.41-2s1-8,.06-11.19C896.39,977.44,893.85,974.62,892.43,971.88Z"/><path class="cls-49" d="M915.24,933.67c4.6-8.44,17.33,2.46,8.55,8.15,8.82-.64,13.05,9.73,5,14.46,4.07,7.1-6.43,15.65-10.93,6.87-1.57,9.19-10.92,7.05-14,2.39-4.72,7.35-15.4,3.55-14.21-3.09-7.49,6.08-20.19-7.74-12.58-13.27-5.23-4.82-1.94-18.26,8.46-13.53,0-8.57,10.28-8.57,14.32-4,1.42-6.87,14.86-5.89,16.19,2.45Z"/><polygon class="cls-50" points="852.37 960.06 852.37 1133.24 831.21 1150.62 831.21 960.06 831.16 958.92 833.97 955.45 836.76 958.92 839.56 955.45 842.37 958.92 845.17 955.45 847.98 958.92 850.77 955.45 852.37 958.13 852.37 960.06"/><polygon class="cls-51" points="852.37 960 852.37 1133.24 873.51 1150.57 873.51 960 873.43 959.24 870.64 955.77 867.83 959.24 865.04 955.77 862.24 959.24 859.45 955.77 856.63 959.24 853.84 955.77 852.37 958.13 852.37 960"/><polygon class="cls-52" points="873.55 1150.57 852.37 1133.24 831.26 1150.57 873.55 1150.57"/><polygon class="cls-28" points="999.85 958.31 996.36 954.95 993.22 958.41 990.07 954.95 986.93 958.41 983.77 954.95 980.64 958.41 977.48 954.95 974.34 958.41 971.2 954.95 968.05 958.41 964.91 954.95 961.76 958.41 958.62 954.95 955.46 958.41 952.33 954.95 949.19 958.41 946.05 954.95 942.9 958.41 939.75 954.95 936.6 958.41 933.47 954.95 930.33 958.41 927.17 954.95 924.02 958.41 920.88 954.95 917.75 958.41 914.59 954.95 911.42 958.41 908.29 954.95 905.13 958.41 901.99 954.95 898.84 958.41 895.68 954.95 892.52 958.41 889.38 954.95 886.23 958.41 883.07 954.95 879.91 958.41 876.76 954.95 873.53 958.51 873.51 960 873.51 1150.57 999.88 1150.57 999.88 960 999.85 958.31"/><polygon class="cls-52" points="873.79 1149.57 852.73 1132.36 831.77 1149.57 873.79 1149.57"/><path class="cls-14" d="M1337.05,1485.46H823.39a30.86,30.86,0,0,0-30.86,30.86v56.31a30.86,30.86,0,0,0,30.86,30.86h513.66a30.86,30.86,0,0,0,30.86-30.86v-43.45l.13.08s-.7-29.9,20.51-36.5c0,0,5.56-1.74,5.91-7.3Z"/><path class="cls-53" d="M796,1628.65h513.66a30.86,30.86,0,0,1,30.86,30.85v56.32a30.86,30.86,0,0,1-30.86,30.86H796a30.86,30.86,0,0,1-30.86-30.86v-43.45l-.13.07s.7-29.89-20.51-36.5c0,0-5.56-1.74-5.91-7.29Z"/><path class="cls-54" d="M893.81,255.4H653.72a31.82,31.82,0,0,0-31.82,31.82V1830.84a31.82,31.82,0,0,0,31.82,31.82h620.84Z"/></g></g></svg>