<svg id="Capa_1" data-name="Capa 1" xmlns="http://www.w3.org/2000/svg" viewBox="0 0 2600 2600"><defs><style>.cls-1{fill:#eef9ff;}.cls-2,.cls-4{fill:#b3ffcc;}.cls-2{stroke:#6dc384;stroke-miterlimit:10;stroke-width:55.85px;}.cls-3{fill:#6dc384;}.cls-5{fill:#c9e9f4;}.cls-6{fill:#8c7661;}.cls-7{fill:#a08d7c;}.cls-8{fill:#f0f1f1;}.cls-9{fill:#715f51;}.cls-10{fill:#efa748;}.cls-11{fill:#fed248;}.cls-12{fill:#e29524;}.cls-13{fill:#fff;}.cls-14{fill:#fbc69a;}.cls-15{fill:#ce321d;}.cls-16{fill:#e4472d;}.cls-17{fill:#41bed2;}.cls-18{fill:#42e0ff;}.cls-19{fill:#f4b382;}.cls-20{fill:#192f47;}</style></defs><path class="cls-1" d="M1742.29,2065.3c259.64-17.36,601.18-123.9,568.52-321.2s-339.91-269.3-359.08-408.57,556.82-203.63,386.33-530.06-334.68-482.23-575.15-468.8-317.47,240.23-595.27,247-481-193.56-663.54-33.14c-364.19,320,170.37,719.69,62.15,954.68s-324.8,246.49-260.29,408S1400,2088.19,1742.29,2065.3Z"/><path class="cls-2" d="M1290.9,735.94c11.12,317.46,27.44,635.47,110.11,930.43-142.23,39.83-284.35,79.54-427.63,119.9C877.58,1496,736.57,1229.69,622.23,928.88,839.71,835.9,1060.26,775.05,1290.9,735.94Z"/><path class="cls-3" d="M1017.63,1103.56c126.62-36.77,238.6,20.59,249.73,119.82,11.13,99.83-56.56,201.43-157.21,230.33-100.44,28.42-214.45-19.27-253.3-109.58C818.5,1254,891.39,1141,1017.63,1103.56Z"/><path class="cls-3" d="M973.38,1786.27q57.15-16.08,114-32c-18.08-62.33-86.15-97.53-152.28-78.29C948.69,1712.35,961.54,1749.07,973.38,1786.27Z"/><path class="cls-4" d="M997.4,1260.1c-15.46,5.92-19.58,20.53-12.36,43.53s18.11,32.42,32.44,28.15c8.74-2.64,14-8.24,15.72-16.91s2-25.08.8-49.47,3.06-43.82,12.78-58.31,24.76-24.7,44.93-30.4c23.53-6.7,43.68-2.9,59.69,11.18s25.93,32.51,30.23,55.12c10.23,54.62-6.3,91.67-49.59,112q-7.49-21.58-15-43.23c23.55-10.23,32.17-29.6,26.06-58.41-5.68-27-19.26-37.62-40.84-31.51-9.55,2.76-15.89,8-18.9,15.9s-4.36,24.65-3.52,50-2.69,44.92-10.48,58.57-19.49,22.67-35.45,27.43q-25.5,7.55-50-6.85c-16.38-9.61-29-26.9-37.63-52.18-17.25-50-5.06-83.47,36-98.75Q989.83,1238.13,997.4,1260.1Z"/><path class="cls-4" d="M943.7,1290.78q6.88,20.65,13.79,41.21-22.37,6.91-45,14.1-7.44-20.31-14.89-40.69Q920.77,1298,943.7,1290.78Z"/><path class="cls-4" d="M1214.74,1212.15q3.54,21.67,7.25,43.24-22.38,6.1-44.58,12.29-4.26-21.48-8.4-43C1184.2,1220.45,1199.41,1216.28,1214.74,1212.15Z"/><path class="cls-3" d="M1394.27,1668.27q-15.26-56.85-28.17-114.33c-64.32,18-102.73,83.49-85.23,146Q1337.56,1684.12,1394.27,1668.27Z"/><path class="cls-3" d="M1279.94,737.86q-92.06,15.9-181.73,36.53c10.16,68.88,92.33,104.9,187.54,85C1283.81,818.82,1282,778.24,1279.94,737.86Z"/><path class="cls-3" d="M622.23,928.88q22.44,57.5,45.47,113.53c90.93-36.52,147.51-113.62,128.66-181.05Q708.71,891.93,622.23,928.88Z"/><path class="cls-3" d="M1131.24,1528.36c22.5-6.38,45.26,5.89,51,27.34s-7.12,43.72-29,49.91-44.67-6-51.14-27.19C1095.77,1557.2,1108.79,1534.79,1131.24,1528.36Z"/><path class="cls-3" d="M979.94,943c31.1-9,59.74,2.85,64.15,25.72s-15.93,47.95-45.29,56.59-58-2.13-64.11-24.57C928.74,978.24,948.9,952,979.94,943Z"/><path class="cls-2" d="M1498.88,719.84c-53.61,313.11-102.25,627.8-81.23,933.4-147.37,10.1-294.59,20.1-443.08,30.51C939.74,1380.1,855.8,1090.66,805,772.9,1036.79,726.05,1265.1,711.28,1498.88,719.84Z"/><path class="cls-3" d="M1156.62,1024.28c131.44-10.29,229.44,68.64,220.17,168.06-9.38,100-96.31,185.73-200.73,193.57-104.12,7.43-206.06-62.44-225.76-158.75C931.06,1131.14,1025.4,1035.25,1156.62,1024.28Z"/><path class="cls-3" d="M974.57,1683.75q59.22-4.12,118.17-8.2c-5.06-64.7-64.55-113-133.21-107.6C965.42,1606.35,970.54,1644.93,974.57,1683.75Z"/><path class="cls-4" d="M1105,1173.44c-16.35,2.66-23.34,16.12-21,40.11s11.15,35.42,26,34.15c9.09-.81,15.36-5.23,18.83-13.36s7.06-24.15,10.83-48.27,11.91-42.29,24.36-54.5,29.26-19.15,50.16-20.64c24.41-1.78,43.37,6,56.18,23.08s18.79,37.1,18.4,60.11c-1.09,55.55-24.79,88.48-71.32,99.64q-2.94-22.66-5.87-45.37c25.15-5.23,37.51-22.45,37.39-51.9-.08-27.58-11.22-40.75-33.59-39.15-9.9.76-17.19,4.64-21.73,11.73s-9.29,23.24-13.62,48.26-11.75,43.43-22.15,55.22-23.7,18.24-40.29,19.65q-26.49,2.21-47.59-16.88c-14.1-12.73-23-32.23-26.26-58.73-6.73-52.47,12-82.75,55.29-89.38Q1102,1150.39,1105,1173.44Z"/><path class="cls-4" d="M1046.18,1192.57q2.55,21.63,5.13,43.14-23.3,2.25-46.88,4.68-3.16-21.41-6.31-42.87Q1022.27,1194.94,1046.18,1192.57Z"/><path class="cls-4" d="M1327.55,1170.65q-.94,21.93-1.69,43.81-23.16,1.44-46.15,3,.19-21.89.52-43.84Q1303.83,1172.06,1327.55,1170.65Z"/><path class="cls-3" d="M1410.66,1653.73q-3.4-58.76-4.36-117.67c-66.63,4.51-117.55,60.88-113.13,125.69Q1351.9,1657.73,1410.66,1653.73Z"/><path class="cls-3" d="M1487.76,719.5c-62.25-2.09-123.91-2.53-185.36-1.16-4.05,69.52,69.08,121.47,166.36,121.32C1475.1,799.55,1481.55,759.45,1487.76,719.5Z"/><path class="cls-3" d="M805,772.9q10.29,60.84,21.46,120.39C922.87,876,993.93,812,989.17,742.17Q897.15,754.29,805,772.9Z"/><path class="cls-3" d="M1181.54,1463.3c23.32-1.67,43.12,15,44.39,37.14s-15.85,41.35-38.55,43-42.52-15-44.55-37C1141,1484.33,1158.25,1465,1181.54,1463.3Z"/><path class="cls-3" d="M1152.34,859.39c32.29-2.53,57.92,14.93,57.58,38.21s-25.34,43.72-55.84,46.21-56.33-13.86-57.78-37.08C1095,883.5,1120.11,862,1152.34,859.39Z"/><path class="cls-5" d="M2407.78,2168.74c0,35.59-540.68,64.42-1136.93,64.42s-1022.14-28.83-1022.14-64.42,426-64.44,1022.14-64.44S2407.78,2133.16,2407.78,2168.74Z"/><path class="cls-6" d="M1657.57,2137.8a42.26,42.26,0,0,1-42.25,42.25H656.44a42.26,42.26,0,0,1-42.28-42.25V1364.08a42.27,42.27,0,0,1,42.28-42.26h958.88a42.26,42.26,0,0,1,42.25,42.26Z"/><path class="cls-7" d="M656.44,1321.82a42.27,42.27,0,0,0-42.28,42.26V2137.8a42.26,42.26,0,0,0,42.28,42.25h479.43V1321.82Z"/><path class="cls-8" d="M702.58,1402.73H773.1a7.46,7.46,0,1,1,0,14.9H702.58a7.46,7.46,0,1,1,0-14.9Zm117.55,0h70.51a7.46,7.46,0,1,1,0,14.9H820.13a7.46,7.46,0,1,1,0-14.9Zm117.51,0h70.54a7.46,7.46,0,1,1,0,14.9H937.64a7.46,7.46,0,1,1,0-14.9Zm117.54,0h70.54a7.46,7.46,0,1,1,0,14.9h-70.54a7.46,7.46,0,1,1,0-14.9Zm117.56,0h70.52a7.46,7.46,0,1,1,0,14.9h-70.52a7.46,7.46,0,1,1,0-14.9Zm117.53,0h70.53a7.46,7.46,0,1,1,0,14.9h-70.53a7.46,7.46,0,1,1,0-14.9Zm117.53,0h70.51a7.46,7.46,0,1,1,0,14.9H1407.8a7.46,7.46,0,1,1,0-14.9Zm117.54,0h9.87c24.56,0,44.57,18.39,44.57,41v4.1a7.77,7.77,0,0,1-15.53,0v-4.1c0-14.41-13-26.12-29-26.12h-9.87a7.46,7.46,0,1,1,0-14.9Zm46.68,82.86a7.6,7.6,0,0,1,7.76,7.45v67.75a7.77,7.77,0,0,1-15.53,0V1493A7.62,7.62,0,0,1,1572,1485.59Zm0,112.93a7.61,7.61,0,0,1,7.76,7.47v67.75a7.77,7.77,0,0,1-15.53,0V1606A7.63,7.63,0,0,1,1572,1598.52Zm0,112.94a7.6,7.6,0,0,1,7.76,7.45v67.76a7.77,7.77,0,0,1-15.53,0v-67.76A7.62,7.62,0,0,1,1572,1711.46Zm0,112.94a7.6,7.6,0,0,1,7.76,7.45v67.76a7.77,7.77,0,0,1-15.53,0v-67.76A7.62,7.62,0,0,1,1572,1824.4Zm0,112.94a7.61,7.61,0,0,1,7.76,7.47v67.75a7.77,7.77,0,0,1-15.53,0v-67.75A7.62,7.62,0,0,1,1572,1937.34Zm0,113.13c4.29,0,7.76,3.14,7.76,7.25v.41c0,22.63-20,41-44.57,41h-14.15a7.46,7.46,0,1,1,0-14.91h14.15c16,0,29-11.71,29-26.11A7.8,7.8,0,0,1,1572,2050.47ZM698.3,2084.19h.52l70,0a7.46,7.46,0,1,1,0,14.91H700.36c-.87,0-1.7,0-2.57-.08a7.44,7.44,0,1,1,.51-14.88Zm117.55,0h70.5a7.46,7.46,0,1,1,0,14.91h-70.5a7.46,7.46,0,1,1,0-14.91Zm117.54,0h70.5a7.46,7.46,0,1,1,0,14.91h-70.5a7.46,7.46,0,1,1,0-14.91Zm117.53,0h70.52a7.46,7.46,0,1,1,0,14.91h-70.52a7.46,7.46,0,1,1,0-14.91Zm117.51,0H1239a7.46,7.46,0,1,1,0,14.91h-70.56a7.46,7.46,0,1,1,0-14.91Zm117.56,0h70.52a7.46,7.46,0,1,1,0,14.91H1286a7.46,7.46,0,1,1,0-14.91Zm117.54,0h70.52a7.46,7.46,0,1,1,0,14.91h-70.52a7.46,7.46,0,1,1,0-14.91Z"/><path class="cls-9" d="M1731.71,1884.55a33,33,0,0,1-33,33H1275.06a33,33,0,0,1-33-33V1617.32a33,33,0,0,1,33-32.93h423.67a33,33,0,0,1,33,32.93Z"/><path class="cls-8" d="M1471.45,1751a64,64,0,1,1-64-64A63.93,63.93,0,0,1,1471.45,1751Z"/><path class="cls-10" d="M676.9,2055.42c-29.32,98.95-133.28,155.41-232.21,126.11s-155.42-133.26-126.12-232.21,133.27-155.39,232.2-126.1S706.17,1956.47,676.9,2055.42Z"/><path class="cls-11" d="M644.52,2045.83A153.08,153.08,0,1,1,541.2,1855.57,153.08,153.08,0,0,1,644.52,2045.83Z"/><path class="cls-12" d="M541.59,1971.52q3.64-17.6-26.59-26.64T479.78,1952c-2,6.61-.18,12.38,5.47,17.3s17.73,12.26,36.3,21.92,31.13,20.32,37.7,32,7.77,24.51,3.5,38.68q-7.41,24.84-33.68,31.7t-54.9-1.72Q405,2071,411.22,2015.13l39.1,8.37q-4.11,29.09,32.59,40.1,34.43,10.28,41.37-13c2.06-6.89.83-12.84-3.75-17.87S504,2020.06,484.7,2009.9s-32.32-20.73-39-31.71a41.55,41.55,0,0,1-4.44-34.87q5.93-19.75,27.6-28.19t55.27,1.66q66.47,19.93,56.49,64.94Z"/><polygon class="cls-12" points="542.87 1926.32 506.51 1915.41 516.42 1882.33 552.81 1893.24 542.87 1926.32"/><rect class="cls-12" x="453.17" y="2082.81" width="34.55" height="38" transform="translate(-1677.89 1948.3) rotate(-73.3)"/><path class="cls-13" d="M367.79,1940.33c0-14.67,6.48-37,11.32-41.84s27.16-11.33,41.83-11.33c-14.67,0-36.26-5.74-41.83-11.32-5.85-5.84-11.32-27.14-11.32-41.83,0,15-5.66,36.16-12.08,42.55-6.57,6.6-26.79,10.6-41.08,10.6,14.67,0,36.32,5.83,41.82,11.33S367.79,1925.66,367.79,1940.33Z"/><path class="cls-13" d="M403.28,1948.57c0-5.23,2.3-13.17,4-14.89s9.68-4,14.9-4c-5.22,0-12.92-2.06-14.9-4s-4-9.67-4-14.9c0,5.36-2,12.88-4.3,15.16s-9.53,3.78-14.63,3.78c5.21,0,12.93,2.06,14.88,4S403.28,1943.34,403.28,1948.57Z"/><path class="cls-13" d="M334,1988.6c0-7.26,3.19-18.28,5.58-20.66s13.43-5.6,20.68-5.6c-7.25,0-17.92-2.85-20.68-5.59-2.89-2.89-5.58-13.43-5.58-20.68,0,7.44-2.8,17.87-6,21s-13.23,5.25-20.31,5.25c7.25,0,17.94,2.87,20.67,5.6S334,1981.34,334,1988.6Z"/><path class="cls-10" d="M1979.58,1027.4c-31.89,107.72-145.07,169.2-252.8,137.3s-169.18-145.08-137.29-252.79,145.08-169.2,252.79-137.31S2011.47,919.67,1979.58,1027.4Z"/><path class="cls-11" d="M1944.34,1017a166.66,166.66,0,1,1-112.49-207.13A166.65,166.65,0,0,1,1944.34,1017Z"/><path class="cls-12" d="M1832.27,936.06c2.64-12.77-7-22.43-28.94-29s-34.81-4-38.33,7.7c-2.14,7.19-.19,13.46,6,18.83s19.3,13.34,39.52,23.86,33.9,22.13,41,34.8,8.46,26.7,3.81,42.13q-8.08,27-36.68,34.51T1758.9,1067q-75.32-22.57-68.56-83.47l42.59,9.11q-4.48,31.67,35.48,43.65,37.44,11.2,45-14.15,3.36-11.25-4.07-19.46t-39-24.83q-31.53-16.61-42.44-34.52a45.32,45.32,0,0,1-4.85-38q6.47-21.51,30.07-30.7t60.16,1.82q72.36,21.69,61.51,70.69Z"/><polygon class="cls-12" points="1833.69 886.86 1794.1 874.98 1804.87 838.96 1844.49 850.83 1833.69 886.86"/><rect class="cls-12" x="1736.03" y="1057.21" width="37.61" height="41.36" transform="translate(217.95 2448.77) rotate(-73.29)"/><path class="cls-13" d="M1939.68,926.1c0-16,7.07-40.28,12.33-45.56s29.56-12.32,45.54-12.32c-16,0-39.47-6.25-45.54-12.32-6.36-6.36-12.33-29.58-12.33-45.55,0,16.38-6.17,39.37-13.11,46.32-7.19,7.18-29.19,11.55-44.75,11.55,16,0,39.54,6.33,45.53,12.32S1939.68,910.12,1939.68,926.1Z"/><path class="cls-13" d="M1978.32,935.07c0-5.69,2.52-14.34,4.39-16.21s10.52-4.4,16.21-4.4c-5.69,0-14.05-2.23-16.21-4.38s-4.39-10.52-4.39-16.21c0,5.82-2.2,14-4.67,16.49s-10.39,4.1-15.92,4.1c5.67,0,14.08,2.26,16.2,4.4S1978.32,929.38,1978.32,935.07Z"/><path class="cls-13" d="M1902.91,978.65c0-7.9,3.5-19.9,6.1-22.5s14.6-6.1,22.5-6.1c-7.9,0-19.5-3.08-22.5-6.08s-6.1-14.61-6.1-22.51c0,8.09-3,19.46-6.48,22.89s-14.4,5.7-22.1,5.7c7.9,0,19.54,3.13,22.5,6.1S1902.91,970.75,1902.91,978.65Z"/><rect class="cls-10" x="1769.29" y="1811.86" width="418.26" height="60.6"/><rect class="cls-11" x="1769.29" y="1811.86" width="418.26" height="30.3"/><rect class="cls-10" x="1815.84" y="1872.46" width="418.26" height="60.59"/><rect class="cls-11" x="1815.84" y="1872.46" width="418.26" height="30.3"/><rect class="cls-10" x="1722.75" y="1933.05" width="418.26" height="60.59"/><rect class="cls-11" x="1722.75" y="1933.05" width="418.26" height="30.3"/><rect class="cls-10" x="1769.29" y="1993.65" width="418.26" height="60.59"/><rect class="cls-11" x="1769.29" y="1993.65" width="418.26" height="30.3"/><rect class="cls-10" x="1810.05" y="2054.24" width="418.26" height="60.6"/><rect class="cls-11" x="1810.05" y="2054.24" width="418.26" height="30.3"/><rect class="cls-10" x="1856.59" y="2114.84" width="418.26" height="60.59"/><rect class="cls-11" x="1856.59" y="2114.84" width="418.26" height="30.3"/><path class="cls-14" d="M1886.17,1155.47s19.76-4.06,33.4-24,13.36-26.77,8.65-26.78c-6.37,0-14,21.4-26.11,25.64-28.07,9.79-23.62,20.68-23.62,20.68Z"/><path class="cls-15" d="M1919.7,1266.67c20,18.95,93.12,22.26,131.64,13.37,23.34-5.38-19.3-46.49-19.3-46.49s-73.51,13.93-89.26,1.44-45.43-87.91-45.43-87.91l-19.72,2S1889,1237.65,1919.7,1266.67Z"/><path class="cls-14" d="M1818.73,1175.35s-.42-24.14-11.37-36.11-23.85-32.5-25.07-21.67-4.21,25.15,2.38,32.73,16.26,26.34,16.71,29.67S1818.73,1175.35,1818.73,1175.35Z"/><path class="cls-16" d="M2048.44,1793.38s-16.58-2.72-21.51-2.75c-17.26-.09-37.73,5.91-39.61,19.18-.71,5,51.35,7,61.1,4.08C2048.42,1813.89,2054.29,1788.39,2048.44,1793.38Z"/><path class="cls-16" d="M1954.33,1795s-17.86-2.36-23.13-2.29c-18.46.26-40.28,6.64-41.75,19.76-.55,4.91,55.39,5.85,65.7,2.77C1955.15,1815.25,1960.38,1790,1954.33,1795Z"/><path class="cls-17" d="M2033.77,1592.57s18.17-78.37,25.73-101.53c15.09-46.23,2.73-99.69,2.73-99.69l-79.36-11.26c-1,13.61-2.77,27.09-4.31,40.9-2.07,18.81.89,37.66-1.72,56.39A31.54,31.54,0,0,1,1981,1500c2.57-3.82,8.55-8.51,9.25-9.6,0,0-7.58,67.72-6.31,102.76.87,23.92,37.58,198.42,37.58,198.42s19.77,4.93,27.73,3.72S2033.77,1592.57,2033.77,1592.57Z"/><path class="cls-18" d="M2029.36,1470.6c5.8-18.06,3.59-57.35,3.48-78.63,0-5.3-6.95-8.32-8.59-13.47l-79.12,13.27c1,9.37.48,21.46-2.22,56.67-2.2,28.68-18.8,82.62-22.56,126.3-3.53,41,8.81,219.9,8.81,219.9s27.31,6.11,29-1.11c6.13-26.67,13.1-159.16,13.81-206.55.09-5.7,24.09-56.43,48.19-94.56C2020.13,1492.42,2027.23,1477.26,2029.36,1470.6Z"/><polygon class="cls-19" points="1979.74 1241.12 1976.94 1199.39 2021.03 1179.93 2027.53 1241.12 1979.74 1241.12"/><path class="cls-16" d="M1935.15,1242.65s-12.34-15.64,11.09-17.34c13-1,43.46-3,61.29-2.08,18.5,1,46-2.1,55.46,15.38,11.63,21.5,1.85,84.73.93,108-1,25.76,1.8,54.55,1.8,54.55s-89.38,28.17-122.16,4.68c0,0-2.49-55.45-11.69-110.25C1924.9,1254.17,1935.15,1242.65,1935.15,1242.65Z"/><path class="cls-14" d="M1963.83,1198.8c2.56,13.33,41.68,13.26,58.67-21.47s7.5-57.42-11.94-58.61S1949.27,1123.32,1963.83,1198.8Z"/><path class="cls-20" d="M1975.07,1150.71s.34-1.22-13-10.66c-15.65-11.11,2.29-36.2,26.49-26.52,21.78,8.7,47.12-.72,49,31.84.75,13.16-3.26,44.4-14.55,53.26-13.51,10.61-31.67-2.71-31.67-2.71s5.67-28.38,0-28.87c-13-1.14-9.18,13.6-9.18,13.6S1973.09,1178.43,1975.07,1150.71Z"/><path class="cls-16" d="M1820.51,1168.47l-23.48,6.31s8.83,118.21,32.36,129c18,8.24,107.69-12.56,107.69-12.56s41.1-54.33,21.31-64.23-93,29.25-109.14,32.92Z"/></svg>