<svg xmlns="http://www.w3.org/2000/svg" xmlns:xlink="http://www.w3.org/1999/xlink" viewBox="0 0 3000 3000"><defs><style>.cls-1{fill:none;}.cls-2{isolation:isolate;}.cls-3{clip-path:url(#clip-path);}.cls-4{fill:#f4f4f5;}.cls-5{fill:#e6e7e8;}.cls-6{fill:#d0e5f7;}.cls-7{fill:#d1d3d4;}.cls-8{fill:#daeabc;}.cls-9{fill:#d85b79;}.cls-10{fill:#231f20;}.cls-11{fill:#f4bc70;}.cls-12{fill:#cb8e4e;}.cls-13{fill:#e4a35b;}.cls-14{fill:#78481d;}.cls-15{fill:#eaaf6a;}.cls-16{fill:#e81f25;}.cls-17{fill:#2d2d2d;}.cls-18{fill:#fff;}.cls-19{fill:#c12129;}.cls-20{fill:#c6e6f6;mix-blend-mode:soft-light;}.cls-21{fill:#f15e68;}.cls-22{fill:#fed349;}.cls-23{fill:#ffde7f;}</style><clipPath id="clip-path"><circle class="cls-1" cx="1527.74" cy="1110.37" r="1011.57"/></clipPath></defs><g class="cls-2"><g id="Layer_1" data-name="Layer 1"><g class="cls-3"><path class="cls-4" d="M2591.74,2819.51l-2049.32,7.57a25.07,25.07,0,0,1-25.09-24.91l-15-4062a25.07,25.07,0,0,1,24.91-25.09l2049.31-7.56a25.08,25.08,0,0,1,25.1,24.91l15,4062A25.07,25.07,0,0,1,2591.74,2819.51Z"/><polygon class="cls-5" points="1645.66 542.19 1419.21 300.39 1341.06 298.12 1342.02 557.89 1149.47 558.6 1150.02 704.98 1419.93 703.98 1645.66 542.19"/><polygon class="cls-6" points="2125.04 -310.52 1745.78 4.58 1743.9 6.4 1852.51 151.45 2120.2 65.44 2286.38 -96.69 2146.86 -310.6 2125.04 -310.52"/><polygon class="cls-5" points="2305.35 -67.6 2138.64 95.06 1873.96 180.1 1983.89 326.93 2254.62 378.8 2401.24 79.42 2305.35 -67.6"/><polygon class="cls-5" points="2081.21 699.72 1957.17 408.54 1662.88 619.46 1961.93 878.63 2081.21 699.72"/><path class="cls-5" d="M756.76-253.61,615.05-84.6l459.56,321.14-1.12-301.21C940.42-75.68,824.86-148.39,756.76-253.61Z"/><polygon class="cls-7" points="1075.01 346.55 681.23 534.26 739.32 822.3 1076.42 729.09 1075.01 346.55"/><path class="cls-5" d="M1077.57,1132.48l71.74-.42-47.82-354.51-24.89.1,0-13.5L742.8,856.43l-10.29,277.83Q905,1133.45,1077.57,1132.48Z"/><path class="cls-5" d="M1257.42-90.16a419.71,419.71,0,0,1-110.25,25.22l1.14,309.17,259,7.53Z"/><polygon class="cls-5" points="1149.35 524.81 1307.51 524.23 1306.68 297.12 1148.49 292.52 1149.35 524.81"/><polygon class="cls-5" points="1911.13 351.93 1690.9 57.79 1464.42 277.38 1685.61 513.56 1911.13 351.93"/><path class="cls-5" d="M1661.49,18.5,1459.4-251.41A417.42,417.42,0,0,1,1289-103.54l148.61,339.11Z"/><polygon class="cls-7" points="2606.82 130.98 2445.81 99.7 2304.45 388.35 2607.98 446.51 2606.82 130.98"/><path class="cls-6" d="M1396.6,1130.6l-1.31-354.13-259.13,1L1184,1131.86Z"/><polygon class="cls-8" points="2606.69 96.52 2605.85 -130.02 2353.72 -82.9 2451.01 66.27 2606.69 96.52"/><polygon class="cls-5" points="507.81 221.85 508.97 535.91 646.01 470.59 507.81 221.85"/><polygon class="cls-8" points="1049.52 278.24 583.73 -47.25 507.16 44.06 507.25 69.75 712.38 438.95 1049.52 278.24"/><path class="cls-8" d="M698.1,1134.41l10.72-289.54L649.25,549.5l-140,66.73,1.91,519Q604.65,1134.84,698.1,1134.41Z"/><polygon class="cls-5" points="1476.24 1782.2 1702.69 2024.01 1780.84 2026.28 1779.88 1766.51 1972.43 1765.8 1971.89 1619.41 1701.97 1620.41 1476.24 1782.2"/><polygon class="cls-5" points="1187.17 1404.97 1499.67 1675.8 1653 1565.91 1652.08 1317.43 1277.39 1269.64 1187.17 1404.97"/><polygon class="cls-6" points="996.86 2634.92 1376.13 2319.81 1378 2317.99 1269.4 2172.94 1001.7 2258.96 835.53 2421.08 975.05 2635 996.86 2634.92"/><polygon class="cls-5" points="816.55 2391.99 983.26 2229.34 1247.95 2144.29 1138.02 1997.47 867.28 1945.59 720.67 2244.97 816.55 2391.99"/><polygon class="cls-5" points="1040.7 1624.67 1164.73 1915.86 1459.03 1704.93 1159.97 1445.77 1040.7 1624.67"/><polygon class="cls-8" points="743.97 1848.2 1130.16 1922.2 1001.93 1621.17 1122.13 1440.87 742.47 1442.27 743.97 1848.2"/><path class="cls-5" d="M2365.14,2578l141.72-169L2047.3,2087.85l1.11,301.22A418.36,418.36,0,0,1,2365.14,2578Z"/><polygon class="cls-5" points="2046.89 1977.84 2440.68 1790.13 2382.58 1502.1 2045.48 1595.31 2046.89 1977.84"/><path class="cls-5" d="M1864.48,2414.56a419.89,419.89,0,0,1,110.25-25.22l-1.14-309.18-258.95-7.52Z"/><polygon class="cls-5" points="1613.58 2632.64 1407.29 2357.12 1073.27 2634.64 1613.58 2632.64"/><polygon class="cls-5" points="1972.55 1799.58 1814.39 1800.16 1815.23 2027.28 1973.41 2031.87 1972.55 1799.58"/><polygon class="cls-5" points="1210.77 1972.46 1431 2266.61 1657.48 2047.02 1436.29 1810.83 1210.77 1972.46"/><path class="cls-5" d="M1460.41,2305.89l202.09,269.92a417.51,417.51,0,0,1,170.4-147.88l-148.6-339.11Z"/><polygon class="cls-7" points="515.09 2193.41 676.09 2224.69 817.45 1936.04 513.92 1877.89 515.09 2193.41"/><path class="cls-5" d="M881.47,1199.19q-185,1.17-370,2.26l.34,93.56,181.41,100.55v-1.37l461.21-1.7,106.06-159.08L1652,1283.34l-.33-89.08Q1266.55,1196.66,881.47,1199.19Z"/><polygon class="cls-5" points="516.18 2488.78 516.72 2636.69 916.84 2635.21 788.18 2437.94 516.18 2488.78"/><polygon class="cls-8" points="515.21 2227.88 516.05 2454.41 768.19 2407.29 670.9 2258.12 515.21 2227.88"/><polygon class="cls-5" points="513.65 1804.07 694.82 1838.79 693.32 1434.43 511.92 1333.88 513.65 1804.07"/><polygon class="cls-5" points="2614.09 2102.54 2612.93 1788.49 2475.89 1853.81 2614.09 2102.54"/><polygon class="cls-8" points="2072.38 2046.15 2538.17 2371.65 2614.75 2280.33 2614.65 2254.64 2409.52 1885.45 2072.38 2046.15"/><path class="cls-8" d="M2423.8,1190l-10.72,289.55,59.57,295.36,140-66.72-1.92-519Q2517.26,1189.57,2423.8,1190Z"/><path class="cls-8" d="M2401.53,2648.44A401.38,401.38,0,0,1,2430,2795.71q0,12.28-.66,24.4l126-.46a61.59,61.59,0,0,0,61.17-61.6l-1.35-364.38Z"/><path class="cls-6" d="M2012.19,2556.77c-135,.5-244.34,108.78-243.86,241.38a237.19,237.19,0,0,0,1.35,24.4l487-1.8a237.41,237.41,0,0,0,1.16-24.41C2257.32,2663.74,2147.14,2556.27,2012.19,2556.77Z"/><path class="cls-5" d="M1606.82,2705.06l-284.22,1.05.44,118.08,274-1q-.78-12.1-.84-24.4A402.12,402.12,0,0,1,1606.82,2705.06Z"/><rect class="cls-8" x="1014.97" y="2706.74" width="273.47" height="118.08" transform="translate(-10.2 4.27) rotate(-0.21)"/><polygon class="cls-7" points="2440.68 1790.13 2254.87 1878.7 2188.18 1555.85 2382.58 1502.1 2440.68 1790.13"/><path class="cls-8" d="M2371.15,2795.92c-.71-194-161.93-351.25-359.37-350.52s-357.5,159.16-356.79,353.16c0,8.21.37,16.34,1,24.41l714.41-2.64C2370.9,2812.26,2371.18,2804.13,2371.15,2795.92Z"/><path class="cls-5" d="M578.82,2826.94l362.69-1.34-.44-118.08L517,2709.08l.21,56.69A61.57,61.57,0,0,0,578.82,2826.94Z"/><polygon class="cls-7" points="668.64 2708.52 680.81 2826.57 941.51 2825.6 941.07 2707.52 668.64 2708.52"/><path class="cls-8" d="M2120,703.22l-120.2,180.3-32.26,48.39-93.23,139.84,65.52,55.38,300.63-1.93q185-1.17,370.05-2.25l-.35-93.57L2428.72,928.84,2379.5,900.7l-.07-18.58-1.5-405.93-386.19-74Z"/><polygon class="cls-5" points="2428.49 867.17 2609.91 968.35 2608.25 520.32 2427.09 485.61 2428.49 867.17"/><path class="cls-9" d="M881.38,619.35A74.36,74.36,0,1,0,739.7,651.21q22.14,48.9,44.3,97.8l12,26.43c2.28,5,3.7,15.12,10.55,16.07,6,.83,8.42-6.48,10.35-10.84l9.81-22.09q13.29-29.93,26.57-59.84c7.11-16,14-32.13,21.33-48A74,74,0,0,0,881.38,619.35Zm-74.19,44.7a44.42,44.42,0,1,1,44.26-44.59A44.43,44.43,0,0,1,807.19,664.05Z"/><path class="cls-5" d="M2389.39,1190.13q-172.53.81-345,1.78l-71.74.42,47.81,354.51,359.48-100.1Z"/><path class="cls-9" d="M2308.12,1293.45a74.36,74.36,0,1,0-141.69,31.86q22.16,48.9,44.3,97.79l12,26.44c2.28,5,3.7,15.12,10.54,16.06,6,.84,8.42-6.47,10.36-10.83l9.81-22.09q13.29-29.92,26.57-59.84c7.11-16,14-32.13,21.33-48A74.1,74.1,0,0,0,2308.12,1293.45Zm-74.19,44.7a44.43,44.43,0,1,1,44.26-44.59A44.43,44.43,0,0,1,2233.93,1338.15Z"/><polygon class="cls-5" points="1940.68 1212.88 1938.19 1194.26 1725.31 1194.26 1726.61 1547.92 1985.74 1546.97 1940.68 1212.88"/><polygon class="cls-5" points="1828.06 1075.16 1844.51 1054.76 1934.74 919.42 1622.23 648.6 1468.9 758.49 1469.82 1006.96 1469.94 1041.05 1470.27 1130.13 1888.64 1127.46 1828.06 1075.16"/><path class="cls-9" d="M795,826.85a2.42,2.42,0,0,1-.66-4.75l14.91-4.26a2.42,2.42,0,1,1,1.33,4.66l-14.91,4.26A2.57,2.57,0,0,1,795,826.85Z"/><path class="cls-9" d="M759.34,837.05a2.42,2.42,0,0,1-.67-4.75l17.86-5.1a2.42,2.42,0,0,1,1.33,4.66L760,837A2.5,2.5,0,0,1,759.34,837.05Z"/><path class="cls-9" d="M726.09,861.92H726a2.44,2.44,0,0,1-2.35-2.5l.49-15.51a2.41,2.41,0,0,1,1.76-2.25l14.91-4.26a2.42,2.42,0,1,1,1.33,4.66l-13.21,3.77-.43,13.74A2.43,2.43,0,0,1,726.09,861.92Z"/><path class="cls-9" d="M717.86,1122.56h-.08a2.43,2.43,0,0,1-2.35-2.5l1-32.58a2.43,2.43,0,0,1,4.85.15l-1,32.58A2.42,2.42,0,0,1,717.86,1122.56Zm2-65.16h-.07a2.43,2.43,0,0,1-2.35-2.5l1-32.58a2.42,2.42,0,1,1,4.84.15l-1,32.58A2.42,2.42,0,0,1,719.91,1057.4ZM722,992.24h-.08a2.41,2.41,0,0,1-2.34-2.5l1-32.58a2.42,2.42,0,1,1,4.84.15l-1,32.58A2.43,2.43,0,0,1,722,992.24ZM724,927.08H724a2.43,2.43,0,0,1-2.35-2.5l1-32.58a2.45,2.45,0,0,1,2.5-2.35,2.43,2.43,0,0,1,2.35,2.5l-1,32.58A2.43,2.43,0,0,1,724,927.08Z"/><path class="cls-9" d="M716.34,1170.64a2.43,2.43,0,0,1-2.43-2.5l.49-15.5a2.43,2.43,0,0,1,4.85.16l-.41,13,13-.08h0a2.43,2.43,0,0,1,0,4.85l-15.51.09Z"/><path class="cls-9" d="M762.73,1170.35a2.43,2.43,0,0,1,0-4.85l30.89-.19a2.39,2.39,0,0,1,2.44,2.41,2.42,2.42,0,0,1-2.41,2.44l-30.89.19Zm61.78-.39a2.43,2.43,0,0,1,0-4.85l30.89-.19h0a2.43,2.43,0,0,1,0,4.85l-30.89.19Zm61.78-.39a2.43,2.43,0,0,1,0-4.85l30.88-.19h0a2.42,2.42,0,0,1,0,4.84l-30.88.2Zm61.78-.39a2.43,2.43,0,0,1,0-4.85l30.89-.19h0a2.42,2.42,0,0,1,0,4.84l-30.89.2Zm61.78-.39a2.43,2.43,0,0,1,0-4.85l30.89-.19h0a2.42,2.42,0,0,1,0,4.84l-30.89.2Zm61.77-.39a2.43,2.43,0,0,1,0-4.85l30.89-.2a2.43,2.43,0,0,1,0,4.85l-30.89.2Zm61.78-.39a2.43,2.43,0,0,1,0-4.85l30.89-.2a2.43,2.43,0,0,1,0,4.85l-30.89.2Zm61.78-.39a2.43,2.43,0,0,1,0-4.85l30.89-.2h0a2.43,2.43,0,0,1,0,4.85l-30.89.2Zm61.78-.4a2.42,2.42,0,1,1,0-4.84l30.89-.2h0a2.43,2.43,0,0,1,0,4.85l-30.89.19Zm61.77-.39a2.42,2.42,0,0,1,0-4.84l30.89-.2h0a2.43,2.43,0,0,1,0,4.85l-30.89.19Zm61.78-.39a2.42,2.42,0,0,1,0-4.84l30.89-.2a2.43,2.43,0,0,1,0,4.85l-30.89.19Zm61.78-.39a2.42,2.42,0,0,1,0-4.84l30.89-.2a2.46,2.46,0,0,1,2.44,2.41,2.42,2.42,0,0,1-2.41,2.44l-30.88.19Zm61.78-.39a2.43,2.43,0,0,1,0-4.85l30.89-.19h0a2.43,2.43,0,0,1,0,4.85l-30.89.19Zm61.78-.39a2.43,2.43,0,0,1,0-4.85l30.89-.19h0a2.43,2.43,0,0,1,0,4.85l-30.89.19Zm61.77-.39a2.43,2.43,0,0,1,0-4.85l30.89-.19h0a2.42,2.42,0,0,1,0,4.84l-30.89.2Zm61.78-.39a2.43,2.43,0,0,1,0-4.85l30.88-.19h0a2.42,2.42,0,0,1,0,4.84l-30.89.2Zm61.78-.39a2.43,2.43,0,0,1,0-4.85l30.89-.19h0a2.42,2.42,0,0,1,0,4.84l-30.89.2Zm61.78-.39a2.43,2.43,0,0,1,0-4.85l30.89-.2h0a2.43,2.43,0,0,1,0,4.85l-30.89.2Zm61.77-.39a2.43,2.43,0,0,1,0-4.85l30.89-.2h0a2.43,2.43,0,0,1,0,4.85l-30.89.2Z"/><path class="cls-9" d="M1954.09,1178.2a2.41,2.41,0,0,1-2.39-2.1l-1.8-13.26-13.37.09h0a2.43,2.43,0,0,1,0-4.85l15.51-.1h0a2.43,2.43,0,0,1,2.4,2.1l2.08,15.37a2.42,2.42,0,0,1-2.08,2.73Z"/><path class="cls-9" d="M2002.84,1539a2.42,2.42,0,0,1-2.4-2.1l-4.07-30.07a2.43,2.43,0,0,1,4.81-.65l4.06,30.07a2.41,2.41,0,0,1-2.08,2.72Zm-8.13-60.14a2.44,2.44,0,0,1-2.4-2.1l-4.06-30.07a2.42,2.42,0,1,1,4.8-.65l4.07,30.07a2.41,2.41,0,0,1-2.08,2.72A1.84,1.84,0,0,1,1994.71,1478.9Zm-8.12-60.14a2.42,2.42,0,0,1-2.4-2.1l-4.06-30.07a2.42,2.42,0,1,1,4.8-.65L1989,1416a2.42,2.42,0,0,1-2.07,2.73Zm-8.12-60.14a2.42,2.42,0,0,1-2.4-2.1l-4.06-30.07a2.42,2.42,0,1,1,4.8-.65l4.06,30.07a2.42,2.42,0,0,1-2.08,2.73Zm-8.13-60.14a2.44,2.44,0,0,1-2.4-2.1l-4.06-30.07a2.43,2.43,0,1,1,4.81-.65l4.06,30.07a2.42,2.42,0,0,1-2.08,2.73Zm-8.12-60.14a2.42,2.42,0,0,1-2.4-2.1l-4.06-30.07a2.42,2.42,0,1,1,4.8-.65l4.06,30.07a2.42,2.42,0,0,1-2.07,2.73Z"/><path class="cls-9" d="M2009,1584.48a2.4,2.4,0,0,1-1.32-.39,2.45,2.45,0,0,1-1.09-1.71L2004.5,1567a2.42,2.42,0,1,1,4.8-.65l1.7,12.56,12.14-3.64a2.42,2.42,0,1,1,1.39,4.64l-14.86,4.45A2.37,2.37,0,0,1,2009,1584.48Z"/><path class="cls-9" d="M2051.7,1571.67a2.42,2.42,0,0,1-.69-4.74l27.86-8.35a2.42,2.42,0,1,1,1.39,4.64l-27.86,8.35A2.42,2.42,0,0,1,2051.7,1571.67Zm55.74-16.7a2.43,2.43,0,0,1-.7-4.75l27.87-8.35a2.42,2.42,0,1,1,1.39,4.64l-27.87,8.36A2.35,2.35,0,0,1,2107.44,1555Zm55.73-16.7a2.43,2.43,0,0,1-.69-4.75l27.86-8.35a2.42,2.42,0,0,1,1.4,4.64l-27.87,8.35A2.43,2.43,0,0,1,2163.17,1538.27Z"/><path class="cls-9" d="M2218.91,1521.56a2.42,2.42,0,0,1-.7-4.74l14.86-4.46a2.43,2.43,0,0,1,1.39,4.65l-14.86,4.45A2.35,2.35,0,0,1,2218.91,1521.56Z"/></g><path class="cls-10" d="M2541.67,2536.34a178,178,0,0,1-1,24.86,228.32,228.32,0,0,1-3.89,24.62,219,219,0,0,1-16.28,47.26,230.53,230.53,0,0,1-12.24,22,144.16,144.16,0,0,1-34.27,36.65,138.25,138.25,0,0,1-21.19,13.32.32.32,0,0,1-.43-.14.34.34,0,0,1,.08-.41c12.85-10.5,24.91-21.53,35.45-33.9,2.61-3.11,5.25-6.19,7.71-9.42s4.92-6.45,7.35-9.71a199.82,199.82,0,0,0,12.93-20.71,216,216,0,0,0,17.75-45.68,226.48,226.48,0,0,0,5.11-24.11,177.8,177.8,0,0,0,2.24-24.59h0a.32.32,0,0,1,.33-.32A.33.33,0,0,1,2541.67,2536.34Z"/><path class="cls-10" d="M2553.86,2582.86a174.39,174.39,0,0,1-5.61,29.91,199.27,199.27,0,0,1-10.42,28.7c-1,2.34-2,4.67-3.25,6.93s-2.25,4.59-3.44,6.86a127.42,127.42,0,0,1-8.2,13,121.19,121.19,0,0,1-20.79,22.41.21.21,0,0,1-.3,0,.21.21,0,0,1,0-.27h0c6-8.22,12.26-16,17.54-24.55,1.4-2.07,2.84-4.11,4.06-6.3l4-6.35c2.49-4.33,5.13-8.61,7.28-13.14a195.5,195.5,0,0,0,11.47-27.85,172.55,172.55,0,0,0,7.25-29.32h0a.23.23,0,0,1,.25-.19A.22.22,0,0,1,2553.86,2582.86Z"/><path class="cls-10" d="M1077.57,2536.34a178,178,0,0,1-1,24.86,228.32,228.32,0,0,1-3.89,24.62,219,219,0,0,1-16.28,47.26,230.53,230.53,0,0,1-12.24,22,144.16,144.16,0,0,1-34.27,36.65A138.25,138.25,0,0,1,988.73,2705a.32.32,0,0,1-.43-.14.34.34,0,0,1,.08-.41c12.85-10.5,24.91-21.53,35.45-33.9,2.61-3.11,5.25-6.19,7.71-9.42s4.92-6.45,7.35-9.71a199.82,199.82,0,0,0,12.93-20.71,216,216,0,0,0,17.75-45.68,226.48,226.48,0,0,0,5.11-24.11,177.8,177.8,0,0,0,2.24-24.59h0a.32.32,0,0,1,.33-.32A.33.33,0,0,1,1077.57,2536.34Z"/><path class="cls-10" d="M1089.76,2582.86a174.39,174.39,0,0,1-5.61,29.91,199.27,199.27,0,0,1-10.42,28.7c-1,2.34-2,4.67-3.25,6.93s-2.25,4.59-3.44,6.86a127.42,127.42,0,0,1-8.2,13,121.19,121.19,0,0,1-20.79,22.41.21.21,0,0,1-.3,0,.21.21,0,0,1,0-.27h0c6-8.22,12.26-16,17.54-24.55,1.4-2.07,2.84-4.11,4.06-6.3l4-6.35c2.49-4.33,5.14-8.61,7.28-13.14a195.5,195.5,0,0,0,11.47-27.85,172.55,172.55,0,0,0,7.25-29.32h0a.23.23,0,0,1,.25-.19A.22.22,0,0,1,1089.76,2582.86Z"/><rect class="cls-11" x="447.21" y="1177.23" width="1378.78" height="961.26" rx="7"/><rect class="cls-12" x="1044.36" y="2041.4" width="184.48" height="97.1"/><rect class="cls-13" x="413.23" y="1113.51" width="1446.75" height="101.95" rx="7"/><path class="cls-14" d="M555.63,2002.14l24.74-42.23s5.73-6.14,10.25,0l20.92,36.4-6.44,5.83h18.1l7.45-17.3-8.45,5-21.92-38s-4.43-7.44-14.89-7.44a19,19,0,0,0-15.08,8.45l-24.94,42.43Z"/><path class="cls-14" d="M619.86,2010.43l23.78,42.78s2.37,8.05-5.21,8.83l-42-.5-1.75-8.5-9.2,15.58,11.11,15.2,0-9.83,43.88.45s8.66,0,14-9a19,19,0,0,0,.4-17.28L631,2005.08Z"/><path class="cls-14" d="M581.13,2062.23H532.19s-8.19-1.85-5.19-8.85l20.85-36.45,8.28,2.61L547,2003.92l-18.68,2.32,8.6,4.75-21.72,38.12s-4.18,7.58,1.1,16.61a19,19,0,0,0,14.92,8.74l49.22.08Z"/><path class="cls-14" d="M661,2096.54H515.06a13.29,13.29,0,0,1-13.27-13.27V1945.55a13.28,13.28,0,0,1,13.27-13.27H661a13.29,13.29,0,0,1,13.27,13.27v137.72A13.29,13.29,0,0,1,661,2096.54Zm-145.9-157.28a6.29,6.29,0,0,0-6.29,6.29v137.72a6.29,6.29,0,0,0,6.29,6.28H661a6.29,6.29,0,0,0,6.28-6.28V1945.55a6.29,6.29,0,0,0-6.28-6.29Z"/><path class="cls-14" d="M1669,1944h-6.42l5.26,23.77h-11.25l4.56,31.15-16.52-38.53h10.71l-5.39-16.39h-22v27.38c0,35.87,29.54,40.79,36.43,41.46v55.82h-20.72a2.5,2.5,0,0,0,0,5h50.72a2.5,2.5,0,0,0,0-5h-20.71v-55.82c6.89-.67,36.43-5.59,36.43-41.46V1944Z"/><path class="cls-14" d="M1741.94,2096.54H1596a13.29,13.29,0,0,1-13.26-13.27V1945.55a13.28,13.28,0,0,1,13.26-13.27h145.9a13.28,13.28,0,0,1,13.27,13.27v137.72A13.29,13.29,0,0,1,1741.94,2096.54ZM1596,1939.26a6.29,6.29,0,0,0-6.28,6.29v137.72a6.29,6.29,0,0,0,6.28,6.28h145.9a6.29,6.29,0,0,0,6.29-6.28V1945.55a6.29,6.29,0,0,0-6.29-6.29Z"/><path class="cls-12" d="M1136.6,2043a1.58,1.58,0,0,1-1.58-1.58V1312.56a1.58,1.58,0,0,1,3.16,0V2041.4A1.58,1.58,0,0,1,1136.6,2043Z"/><rect class="cls-15" x="447.21" y="1215.46" width="1378.78" height="21.85"/><rect class="cls-12" x="1044.36" y="1215.46" width="184.48" height="97.1"/><path class="cls-10" d="M740,2176.78a4.14,4.14,0,0,1-.7-.06A4,4,0,0,1,736,2172l186.1-1059.22a4.05,4.05,0,1,1,8,1.4L744,2173.43A4.07,4.07,0,0,1,740,2176.78Z"/><path class="cls-10" d="M1533,2176.78a4.25,4.25,0,0,0,.71-.06A4.06,4.06,0,0,0,1537,2172l-186.1-1059.22a4.05,4.05,0,1,0-8,1.4L1529,2173.43A4,4,0,0,0,1533,2176.78Z"/><rect class="cls-10" x="340.76" y="2382.23" width="179.74" height="29.96" rx="10"/><rect class="cls-10" x="1226.25" y="2402.48" width="663.99" height="83.79" rx="10"/><path class="cls-10" d="M1469.3,2408.29,828.55,2543.56a6.15,6.15,0,0,1-7.27-4.73l-1.15-5.42a6.15,6.15,0,0,1,4.74-7.27l640.75-135.28a6.16,6.16,0,0,1,7.28,4.74L1474,2401A6.15,6.15,0,0,1,1469.3,2408.29Z"/><rect class="cls-10" x="1649.31" y="2458.31" width="667.15" height="17.81" rx="6.14" transform="translate(3413.37 5290.81) rotate(-168.08)"/><path class="cls-16" d="M2750.55,1863s-3.73-5.64-10.63-15.66h-40c-23.89-33.85-64.36-89.21-114-149.21-77.08-93.12-149.6-165.19-213.4-212.43h53.12c-34.37-28.56-69.15-52.92-103.06-70.17,0,0-61.31-37.24-109.08-37.24H1868.57s-27.53,4.85-27.53,27.52V2474.53s2.16,27.53,26.45,27.53H2084c11.06-107.95,102.25-192.16,213.12-192.16s202.06,84.21,213.11,192.16h240.9s31.84-2.7,31.84-28.07C2782.93,2474,2847.71,2048.66,2750.55,1863Zm-792-15.66c-6.07,0-7.24-3-7.43-4.61V1493.42s0-7.74,9.18-7.74h362.53c68.9,43.08,151.64,122,241.38,230.36,41.86,50.57,77.09,97.76,101.18,131.28Z"/><path class="cls-17" d="M2481.87,2415.7a214.28,214.28,0,0,0-369.58,0Z"/><path class="cls-17" d="M651.58,2415.7h369.57a214.27,214.27,0,0,0-369.57,0Z"/><path class="cls-10" d="M2297.08,2340.87a183.28,183.28,0,0,0-183.28,183.28c0,101.22,82.06,183.27,183.28,183.27s183.28-82.05,183.28-183.27A183.28,183.28,0,0,0,2297.08,2340.87Zm0,330.68a147.41,147.41,0,1,1,147.4-147.4A147.4,147.4,0,0,1,2297.08,2671.55Z"/><circle class="cls-7" cx="2297.08" cy="2524.15" r="56.93"/><path class="cls-5" d="M2297.08,2402.48a121.67,121.67,0,1,0,121.66,121.67A121.67,121.67,0,0,0,2297.08,2402.48Z"/><circle class="cls-18" cx="2297.08" cy="2524.15" r="46.4"/><path class="cls-18" d="M2297.08,2376.74a147.41,147.41,0,1,0,147.4,147.41A147.4,147.4,0,0,0,2297.08,2376.74Zm0,269.07a121.67,121.67,0,1,1,121.66-121.66A121.66,121.66,0,0,1,2297.08,2645.81Z"/><circle class="cls-7" cx="2297.08" cy="2524.15" r="53.62"/><circle class="cls-18" cx="2297.08" cy="2524.15" r="46.4"/><path class="cls-5" d="M2297.08,2539a46.43,46.43,0,0,1-43.66-30.65,46.41,46.41,0,1,0,87.31,0A46.42,46.42,0,0,1,2297.08,2539Z"/><path class="cls-10" d="M836.37,2340.87a183.28,183.28,0,1,0,183.27,183.28A183.27,183.27,0,0,0,836.37,2340.87Zm0,330.68a147.41,147.41,0,1,1,147.4-147.4A147.41,147.41,0,0,1,836.37,2671.55Z"/><circle class="cls-7" cx="836.37" cy="2524.15" r="56.93"/><path class="cls-5" d="M836.37,2402.48A121.67,121.67,0,1,0,958,2524.15,121.67,121.67,0,0,0,836.37,2402.48Z"/><circle class="cls-18" cx="836.37" cy="2524.15" r="46.4"/><path class="cls-18" d="M836.37,2376.74a147.41,147.41,0,1,0,147.4,147.41A147.41,147.41,0,0,0,836.37,2376.74Zm0,269.07A121.67,121.67,0,1,1,958,2524.15,121.66,121.66,0,0,1,836.37,2645.81Z"/><circle class="cls-7" cx="836.37" cy="2524.15" r="53.62"/><circle class="cls-18" cx="836.37" cy="2524.15" r="46.4"/><path class="cls-5" d="M836.37,2539a46.42,46.42,0,0,1-43.66-30.65,46.41,46.41,0,1,0,87.31,0A46.42,46.42,0,0,1,836.37,2539Z"/><path class="cls-19" d="M1831.67,2309.9H836.37a214.29,214.29,0,0,1,198,132.25H1841V2309.9Z"/><path class="cls-19" d="M461.58,2309.9H445.2v122.88a9.4,9.4,0,0,0,9.37,9.37H638.39a214.29,214.29,0,0,1,198-132.25Z"/><path class="cls-16" d="M1841,2096.89h0v-9.37H388a9.16,9.16,0,0,0-8.86,9.37v203.64a9.15,9.15,0,0,0,8.86,9.37H1841v-9.37h0Z"/><rect class="cls-19" x="1951.15" y="1926.4" width="99.59" height="25.91" rx="8.93"/><path class="cls-19" d="M1832.18,2087.52H375.79a9.15,9.15,0,0,0-8.85,9.37v10.41a9.15,9.15,0,0,0,8.85,9.37H1841v-29.15Z"/><path class="cls-10" d="M2647.2,1867.57l-25.68-53.27c-3.52-9.73-11.87-11.73-16-11.42h-15.75v-35.35a10.38,10.38,0,0,0-10.35-10.35h-10a10.38,10.38,0,0,0-10.35,10.35v98.53a10.38,10.38,0,0,0,10.35,10.35h10a10.38,10.38,0,0,0,10.35-10.35v-55.79H2606c.61,0,6.19-.22,8.62,6.7.05.13.1.25.16.38l25.76,53.44a3.7,3.7,0,0,0,6.66-3.21Z"/><path class="cls-20" d="M2613.33,1675.4c-47.76-57.69-94.2-107.93-138-149.32q-21.86-20.64-42.86-38.33a9.2,9.2,0,0,0-4.45-2.07H2372.5c63.8,47.24,136.32,119.31,213.4,212.43,49.67,60,90.14,115.36,114,149.21h40a3.79,3.79,0,0,0,1.41-2.89C2720.54,1814.32,2673.37,1747.93,2613.33,1675.4Z"/><path class="cls-20" d="M2564.24,1716c-89.74-108.41-172.48-187.28-241.38-230.36H1960.33c-9.18,0-9.18,7.74-9.18,7.74v349.29c.19,1.64,1.36,4.61,7.43,4.61h706.84C2641.33,1813.8,2606.1,1766.61,2564.24,1716Z"/><path class="cls-21" d="M2712.21,1885.75l-.14-.24c-9.85-14.67-62.66-92.3-135.2-179.93-103.6-125.17-198.52-211.75-274.5-250.4l-1.42-.72-1.44-.87c-19.76-11.91-60.6-30.81-86-30.81H1894.61c-6.4,0-8.87,3.55-9,6.87v869.57c0,6,4.28,13,16.21,13h246.35l.6-.42a258,258,0,0,1,148.37-46.44c116.68,0,219.35,78.31,249.68,190.43l.47,1.73h193.08l.28-2c4.42-32.65,15-119.42,18.13-219.8C2763.62,2076.11,2747.54,1955.09,2712.21,1885.75Zm-817.6-458.29h318.87c24.49,0,64.28,18.49,83.61,30.14l1.51.92,1.66.84c75.4,38.36,169.8,124.53,273,249.21,72.21,87.22,124.82,164.51,134.84,179.44,22.84,44.89,37.54,111.83,43.61,197.17H1890.24V1429.86C1890.39,1427.88,1892.69,1427.46,1894.61,1427.46ZM2754,2235.58c-3,98.15-13.25,183.25-17.81,217.28H2550.81a263.82,263.82,0,0,0-92.75-137.61c-46.36-35.68-102-54.54-161-54.54a262.66,262.66,0,0,0-150.44,46.85H1901.76c-10.37,0-11.51-5.84-11.52-8.34V2089.86H2752C2755,2133.81,2755.66,2182.54,2754,2235.58Z"/><path class="cls-10" d="M2670,1849.67H1958.57c-8.33,0-9.57-5.13-9.74-6.7l0-.26V1493.42c0-3.49,2.41-10.08,11.52-10.08h363.2l.57.35c69,43.12,152.63,123,242,230.85h0c42.89,51.82,78.75,100.07,101.27,131.42Zm-716.49-7.12c.31,2,2.92,2.43,5.07,2.43h702.28c-22.6-31.31-57.26-77.74-98.41-127.45C2473.68,1610.3,2390.62,1531,2322.19,1488H1960.33c-6.64,0-6.83,4.84-6.83,5.4Z"/><path class="cls-10" d="M2738.86,1845h-37.72c-25-35.46-64.85-89.66-113.44-148.36-75.09-90.72-145.09-160.86-208.16-208.6h48.25a2.78,2.78,0,0,0,1.53-2.67s0-1.68-2.23-2l-61.69,0,5.71,4.22c64.23,47.56,135.88,118.9,213,212,48.95,59.14,89,113.71,113.92,149.07l.71,1h42C2743.1,1845.67,2738.86,1845,2738.86,1845Z"/><polygon class="cls-20" points="1951.15 1821.88 2270.57 1485.68 2193.02 1485.68 1951.15 1740.25 1951.15 1821.88"/><path class="cls-20" d="M2423.47,1564.85c-31-28.69-60.42-52.44-87.79-70.85L2000,1847.32H2155.1Z"/><path class="cls-20" d="M2530.51,1676.3q-25.77-29.58-50.58-55.61l-215.32,226.63H2368Z"/><rect class="cls-22" x="2732.2" y="2179.28" width="77.73" height="143.58" rx="10"/><rect class="cls-23" x="2758.11" y="2196.55" width="43.18" height="107.95" rx="10"/><rect class="cls-22" x="435.58" y="2350.98" width="60.09" height="46.15" rx="10"/><rect class="cls-23" x="441.06" y="2356.53" width="28.16" height="34.7" rx="9.7"/><rect class="cls-19" x="379.18" y="2172.56" width="1461.86" height="4.69"/><rect class="cls-19" x="379.18" y="2238.54" width="1461.86" height="4.69"/></g></g></svg>