<svg xmlns="http://www.w3.org/2000/svg" viewBox="0 0 800 600"><defs><style>.cls-1{fill:#f7cfa3;}.cls-2{fill:#ebc49a;}.cls-3{fill:none;}.cls-4{fill:#fbc33b;}.cls-5{fill:#f0af3e;}.cls-6{fill:#f7f7f7;}.cls-7{fill:#333;}</style></defs><g id="Layer_1" data-name="Layer 1"><path class="cls-1" d="M196.88,448.12V433.48h2.5a27.37,27.37,0,0,0,27.37-27.37H174.83a4.67,4.67,0,0,0-4.67,4.67v50.84l52.46,0C222.62,447.44,211.1,448.12,196.88,448.12Z"/><polygon class="cls-2" points="181.07 426.46 182.62 426.49 182.64 450.17 181.07 426.46"/><path class="cls-3" d="M173.58,393.88a9,9,0,0,0,9,9H286.69a9.05,9.05,0,0,0,9.05-9V378.24l-122.16-.37Z"/><path class="cls-4" d="M411.22,166,127.32,338.41l11,39.35,11.74,0v16.08a32.65,32.65,0,0,0,32.61,32.61H286.69a32.65,32.65,0,0,0,32.62-32.61V378.31l151.09.46ZM295.74,393.88a9.05,9.05,0,0,1-9.05,9H182.62a9,9,0,0,1-9-9v-16l122.16.37Z"/><polygon class="cls-5" points="85.91 318.12 113.29 416.52 138.27 377.76 127.32 338.41 85.91 318.12"/><polygon class="cls-5" points="150.01 377.8 173.58 377.87 173.58 388.4 150.01 377.8"/><polygon class="cls-5" points="295.74 378.24 319.31 378.31 319.31 388.84 295.74 378.24"/><path class="cls-1" d="M274.65,382.05H194.48a11.88,11.88,0,0,0-11.84,11.84v56.28H170.16v11.45l24.44,16V521l91.79-.06s.1-86.28.1-90.05v-37A11.88,11.88,0,0,0,274.65,382.05Z"/><polygon class="cls-6" points="186.92 509.92 292.21 509.66 291.82 538.42 186.87 538.02 186.92 509.92"/><polygon class="cls-7" points="295.48 525.62 296.44 600 177.2 600 183.4 525.8 295.48 525.62"/><path class="cls-6" d="M274,556.55a9.29,9.29,0,1,0-10.11-8.41A9.29,9.29,0,0,0,274,556.55Z"/><path class="cls-6" d="M274,589.57a9.3,9.3,0,1,0-10.11-8.41A9.3,9.3,0,0,0,274,589.57Z"/><path class="cls-5" d="M288.06,426.46V402.81a8.83,8.83,0,0,1-1.37.11h-.2v23.57h.2C287.15,426.49,287.6,426.48,288.06,426.46Z"/><path class="cls-5" d="M182.64,426.49V402.92h0a8.85,8.85,0,0,1-1.55-.14v23.68c.52,0,1,0,1.55,0Z"/><polygon class="cls-6" points="620.55 226.75 712.21 196.24 578.07 205.92 586.48 225.32 494.82 255.83 628.97 246.16 620.55 226.75"/><polygon class="cls-6" points="603.32 349.41 684.54 358.35 578.03 318.39 577.64 336.28 496.42 327.34 602.93 367.3 603.32 349.41"/><polygon class="cls-6" points="536.29 123.29 587.34 59.49 496.55 128.03 511.45 137.94 460.4 201.75 551.19 133.2 536.29 123.29"/></g></svg>